<svg xmlns="http://www.w3.org/2000/svg" width="954.961" height="643.246" viewBox="0 0 954.961 643.246"><defs><style>.a{opacity:0.34;mix-blend-mode:soft-light;isolation:isolate;}.b{fill:#919191;}.c{fill:#c6c6c6;}</style></defs><g class="a"><g transform="translate(252.257 558.035)"><path class="b" d="M586.628,963.735c-5.6-12.429-11.169-24.874-17.222-37.084-3.039-6.1-6.2-12.138-9.728-17.958a84.681,84.681,0,0,0-12.226-16.238,45.907,45.907,0,0,0-3.79-3.37,36.073,36.073,0,0,0-4.2-2.824,31.159,31.159,0,0,0-9.41-3.547,40.67,40.67,0,0,0-10.066-.6,67.178,67.178,0,0,0-10.026,1.463,147.929,147.929,0,0,0-19.445,5.935c-6.372,2.35-12.655,4.947-18.911,7.606-12.5,5.348-24.89,10.978-37.3,16.56L397.1,930.458,322.669,964.02l-.876-1.969,74.647-33.07,37.324-16.535c12.446-5.5,24.873-11.05,37.428-16.323,6.283-2.622,12.6-5.182,19.006-7.5a148.863,148.863,0,0,1,19.6-5.839,67.979,67.979,0,0,1,10.153-1.412,41.375,41.375,0,0,1,10.241.68,31.807,31.807,0,0,1,9.578,3.682,36.678,36.678,0,0,1,4.247,2.9,46.684,46.684,0,0,1,3.815,3.437,85.13,85.13,0,0,1,12.193,16.412c3.5,5.859,6.623,11.928,9.624,18.048C575.623,938.789,581.114,951.27,586.628,963.735Z" transform="translate(-321.793 -881.309)"/></g><g transform="translate(237.434 546.983)"><path class="b" d="M588.388,954.443c-6.25-13.913-12.408-27.871-18.98-41.632-3.293-6.876-6.707-13.7-10.45-20.332-1.883-3.31-3.855-6.57-5.986-9.721a75.686,75.686,0,0,0-7-8.981l-.967-1.042-1.01-1c-.659-.681-1.388-1.287-2.083-1.929a38.609,38.609,0,0,0-4.549-3.372,30.913,30.913,0,0,0-10.429-4.189l-.691-.147-.7-.107c-.466-.067-.93-.148-1.4-.2-.939-.082-1.875-.2-2.818-.215a45.986,45.986,0,0,0-5.657.113,74.029,74.029,0,0,0-11.183,1.9,179.52,179.52,0,0,0-21.631,7.084c-7.084,2.755-14.089,5.726-21.063,8.766-13.943,6.1-27.8,12.408-41.689,18.648l-41.645,18.763L295.172,954.37,294.3,952.4l83.51-37.033,41.755-18.517c13.924-6.159,27.817-12.387,41.81-18.407,7-3,14.033-5.936,21.153-8.657a180.283,180.283,0,0,1,21.78-6.99,74.8,74.8,0,0,1,11.313-1.851,46.77,46.77,0,0,1,5.747-.081c.96.022,1.913.147,2.869.236.477.061.95.145,1.424.217l.712.113.7.154a31.571,31.571,0,0,1,10.616,4.335,39.267,39.267,0,0,1,4.6,3.452c.7.654,1.435,1.272,2.1,1.965l1.015,1.017.97,1.058a76.13,76.13,0,0,1,6.99,9.081c2.122,3.177,4.08,6.457,5.947,9.785,3.711,6.67,7.088,13.517,10.342,20.414C576.145,926.5,582.22,940.493,588.388,954.443Z" transform="translate(-294.297 -860.809)"/></g><g transform="translate(221.179 535.933)"><path class="b" d="M588.647,944.517c-6.937-15.422-13.745-30.9-20.879-46.233-3.589-7.653-7.25-15.276-11.276-22.7-2.015-3.712-4.121-7.373-6.4-10.927a87.011,87.011,0,0,0-7.489-10.168c-.337-.4-.688-.795-1.05-1.176l-1.075-1.153c-.75-.735-1.477-1.494-2.271-2.181-.764-.72-1.591-1.365-2.4-2.03-.846-.617-1.677-1.256-2.568-1.8a30.688,30.688,0,0,0-5.561-2.87,32.949,32.949,0,0,0-6.017-1.7,39.426,39.426,0,0,0-6.239-.549,53.971,53.971,0,0,0-6.268.357,87.126,87.126,0,0,0-12.331,2.522,222.825,222.825,0,0,0-23.817,8.394c-7.814,3.166-15.547,6.539-23.262,9.954-15.422,6.852-30.8,13.825-46.195,20.743l-46.177,20.79-92.353,41.578-.876-1.969,92.573-41.086L403,881.764c15.435-6.836,30.843-13.726,46.309-20.5,7.738-3.376,15.5-6.712,23.344-9.842a223.6,223.6,0,0,1,23.955-8.3,87.87,87.87,0,0,1,12.458-2.478,54.82,54.82,0,0,1,6.36-.329,40.236,40.236,0,0,1,6.35.593,33.637,33.637,0,0,1,6.133,1.767,31.332,31.332,0,0,1,5.654,2.956c.9.563,1.746,1.217,2.6,1.849.818.679,1.654,1.339,2.423,2.072.8.7,1.531,1.472,2.286,2.219l1.079,1.17q.546.58,1.054,1.193a87.564,87.564,0,0,1,7.479,10.267c2.264,3.578,4.356,7.26,6.354,10.988,3.994,7.46,7.616,15.107,11.166,22.782C575.067,913.541,581.792,929.058,588.647,944.517Z" transform="translate(-264.145 -840.311)"/></g><g transform="translate(206.521 524.883)"><path class="b" d="M590.736,935.62l-11.369-25.383c-3.787-8.462-7.563-16.93-11.422-25.359s-7.794-16.823-12.039-25.059c-2.128-4.114-4.343-8.183-6.725-12.15a104.7,104.7,0,0,0-7.807-11.448,57.011,57.011,0,0,0-4.59-5.167,39.97,39.97,0,0,0-5.24-4.472,31.383,31.383,0,0,0-12.51-5.42,43.232,43.232,0,0,0-13.7-.181,89.4,89.4,0,0,0-13.482,2.96,258.214,258.214,0,0,0-26.011,9.522c-8.538,3.549-17,7.293-25.449,11.061L237.831,935.642l-.876-1.97,203-90.134c8.472-3.728,16.957-7.434,25.526-10.948a259.274,259.274,0,0,1,26.146-9.426,90.215,90.215,0,0,1,13.613-2.918,43.927,43.927,0,0,1,13.924.255,32.029,32.029,0,0,1,12.734,5.588,40.54,40.54,0,0,1,5.291,4.559,57.778,57.778,0,0,1,4.608,5.237,105.282,105.282,0,0,1,7.79,11.541c2.37,3.991,4.569,8.079,6.68,12.208,4.21,8.266,8.1,16.684,11.926,25.132s7.553,16.935,11.3,25.416Z" transform="translate(-236.956 -819.815)"/></g><g transform="translate(191.264 513.833)"><path class="b" d="M592.066,926.163l-24.75-55.235c-4.165-9.187-8.36-18.362-12.864-27.382-2.255-4.509-4.587-8.978-7.094-13.347a123.173,123.173,0,0,0-8.185-12.671A54.335,54.335,0,0,0,528.8,806.706a33.192,33.192,0,0,0-6.4-3.852,30.879,30.879,0,0,0-7.115-2.225,45.26,45.26,0,0,0-14.91.035,100.961,100.961,0,0,0-14.609,3.521c-9.589,3-18.915,6.807-28.181,10.72-9.259,3.941-18.452,8.048-27.639,12.167L209.532,926.188l-.876-1.969L429.51,826.085c9.207-4.078,18.422-8.145,27.711-12.051,9.3-3.877,18.658-7.654,28.309-10.624a101.775,101.775,0,0,1,14.738-3.481,45.954,45.954,0,0,1,15.144.036,31.553,31.553,0,0,1,7.254,2.3,33.854,33.854,0,0,1,6.5,3.952A54.9,54.9,0,0,1,539.6,817.2a123.613,123.613,0,0,1,8.164,12.76c2.493,4.391,4.809,8.878,7.046,13.4,4.469,9.049,8.624,18.246,12.748,27.452Z" transform="translate(-208.656 -799.319)"/></g><g transform="translate(175.576 502.782)"><path class="b" d="M592.653,915.861,565.939,856.2c-4.468-9.936-8.955-19.865-13.729-29.654-2.389-4.892-4.86-9.745-7.5-14.5a139.655,139.655,0,0,0-8.62-13.832,57.649,57.649,0,0,0-11.035-11.848,33.129,33.129,0,0,0-6.921-4.139,31.4,31.4,0,0,0-7.727-2.249,48.091,48.091,0,0,0-16.1.538,116.409,116.409,0,0,0-15.691,4.191c-5.15,1.708-10.225,3.644-15.266,5.666s-10.045,4.143-15.034,6.3c-9.975,4.319-19.889,8.79-29.812,13.24L180.432,916.927l-.876-1.97L418.065,808.924c9.942-4.409,19.876-8.84,29.879-13.122,5-2.139,10.023-4.24,15.082-6.247s10.157-3.926,15.336-5.62a117.079,117.079,0,0,1,15.813-4.152,48.769,48.769,0,0,1,16.338-.474,32.05,32.05,0,0,1,7.878,2.328,33.77,33.77,0,0,1,7.032,4.244,58.211,58.211,0,0,1,11.1,12.013,140.247,140.247,0,0,1,8.6,13.919c2.627,4.779,5.081,9.647,7.451,14.554,4.738,9.816,9.185,19.765,13.613,29.721Z" transform="translate(-179.556 -778.819)"/></g><g transform="translate(160.817 491.722)"><path class="b" d="M594.931,907.556l-28.752-64.221c-4.79-10.7-9.571-21.413-14.6-32-2.519-5.292-5.1-10.555-7.84-15.733a171.572,171.572,0,0,0-8.9-15.126,65.906,65.906,0,0,0-11.312-13.284,35.251,35.251,0,0,0-7.213-4.834A31.351,31.351,0,0,0,508.1,759.6a47.742,47.742,0,0,0-17.319.459,124.688,124.688,0,0,0-16.858,4.636c-11.045,3.812-21.812,8.417-32.538,13.087-10.72,4.692-21.389,9.51-32.068,14.3L153.056,907.242l-.876-1.969L408.883,791.1c10.7-4.752,21.386-9.529,32.131-14.183,10.753-4.633,21.55-9.2,32.654-12.988a125.46,125.46,0,0,1,16.984-4.6,48.411,48.411,0,0,1,17.576-.392,32,32,0,0,1,8.371,2.839,35.866,35.866,0,0,1,7.322,4.946,66.48,66.48,0,0,1,11.365,13.444,172.225,172.225,0,0,1,8.872,15.207c2.723,5.2,5.288,10.475,7.788,15.78,4.99,10.617,9.73,21.345,14.48,32.067Z" transform="translate(-152.18 -758.304)"/></g><g transform="translate(144.963 480.676)"><path class="b" d="M595.679,897.931,564.9,829.184c-5.127-11.459-10.212-22.937-15.524-34.308-2.662-5.682-5.376-11.34-8.25-16.914s-5.905-11.069-9.3-16.334a71.107,71.107,0,0,0-11.853-14.442,32.535,32.535,0,0,0-16.454-8.16c-6.136-1.032-12.439-.39-18.526.877-3.052.638-6.072,1.438-9.067,2.326-2.99.906-5.954,1.9-8.9,2.943-11.769,4.246-23.261,9.253-34.725,14.3-11.458,5.067-22.879,10.225-34.312,15.354L123.648,898.06l-.876-1.969L397.551,773.838c11.452-5.089,22.89-10.205,34.372-15.234,11.49-5.005,23.01-9.977,34.833-14.194,2.962-1.037,5.941-2.024,8.951-2.924,3.014-.883,6.056-1.677,9.138-2.309,6.143-1.256,12.533-1.89,18.789-.816a31.48,31.48,0,0,1,8.976,2.979,35.506,35.506,0,0,1,7.766,5.392,71.688,71.688,0,0,1,11.9,14.6c3.387,5.3,6.4,10.821,9.263,16.41s5.554,11.265,8.2,16.96c5.274,11.4,10.318,22.893,15.4,34.37Z" transform="translate(-122.772 -737.815)"/></g><g transform="translate(130.338 469.614)"><path class="b" d="M597.227,887.725l-32.7-73.049c-5.464-12.169-10.84-24.378-16.43-36.486-2.8-6.05-5.64-12.085-8.647-18.033s-6.147-11.831-9.681-17.471a74.82,74.82,0,0,0-12.342-15.557,35.852,35.852,0,0,0-8.071-5.688l-1.109-.546c-.374-.172-.759-.32-1.137-.482-.752-.339-1.542-.577-2.317-.853a32.05,32.05,0,0,0-4.806-1.12,41.111,41.111,0,0,0-9.872-.277,71.206,71.206,0,0,0-9.8,1.579,155.944,155.944,0,0,0-19.013,5.89c-12.459,4.647-24.639,10.035-36.81,15.424L388.041,757.4,96.52,888.314l-.876-1.969L387.6,756.41l36.507-16.217c12.194-5.35,24.4-10.7,36.912-15.32a156.664,156.664,0,0,1,19.129-5.854,71.873,71.873,0,0,1,9.9-1.562,41.821,41.821,0,0,1,10.033.317,32.736,32.736,0,0,1,4.9,1.161c.791.284,1.6.53,2.363.879.387.166.778.319,1.16.5l1.13.56a36.489,36.489,0,0,1,8.19,5.811A75.388,75.388,0,0,1,530.22,742.4c3.528,5.675,6.656,11.581,9.645,17.545s5.81,12.013,8.593,18.076c5.551,12.132,10.886,24.359,16.31,36.546Z" transform="translate(-95.644 -717.296)"/></g><g transform="translate(114.618 458.566)"><path class="b" d="M598.416,878.827l-34.761-77.651c-5.813-12.933-11.537-25.907-17.414-38.809-2.948-6.446-5.927-12.878-9.06-19.234s-6.392-12.651-10.04-18.715a84.014,84.014,0,0,0-12.724-16.862,38.03,38.03,0,0,0-8.411-6.285,31.121,31.121,0,0,0-9.914-3.315,38.461,38.461,0,0,0-5.233-.461,50.561,50.561,0,0,0-5.26.218,73.833,73.833,0,0,0-10.4,1.792,169.931,169.931,0,0,0-20.15,6.473c-13.205,5.046-26.128,10.829-39.058,16.578l-38.742,17.38L67.359,879.071l-.876-1.969L376.817,738.951l38.8-17.257c12.951-5.709,25.9-11.455,39.155-16.472a170.676,170.676,0,0,1,20.263-6.437,74.486,74.486,0,0,1,10.5-1.776,51.218,51.218,0,0,1,5.337-.2,39.071,39.071,0,0,1,5.326.486,31.785,31.785,0,0,1,10.109,3.416,38.665,38.665,0,0,1,8.53,6.414,84.577,84.577,0,0,1,12.763,17.02c3.642,6.1,6.883,12.416,10,18.784s6.076,12.817,9,19.275c5.837,12.924,11.52,25.916,17.292,38.867Z" transform="translate(-66.483 -696.803)"/></g><g transform="translate(99.261 447.512)"><path class="b" d="M599.933,869.958l-36.8-82.212-18.406-41.1c-3.1-6.836-6.219-13.661-9.478-20.419s-6.636-13.46-10.393-19.945c-1.879-3.241-3.856-6.425-6-9.488A71.549,71.549,0,0,0,511.8,688.1a39.757,39.757,0,0,0-8.715-6.907c-.795-.48-1.635-.873-2.467-1.283-.419-.2-.853-.362-1.279-.544l-.642-.267-.657-.227a30.67,30.67,0,0,0-5.376-1.385,39.023,39.023,0,0,0-5.539-.5,50.424,50.424,0,0,0-5.568.254,75.518,75.518,0,0,0-10.993,1.985,186.187,186.187,0,0,0-21.278,7.041c-6.976,2.709-13.872,5.629-20.742,8.611s-13.71,6.038-20.549,9.1l-41.015,18.4L38.873,869.66,38,867.691,366.541,721.4l41.07-18.281c6.85-3.038,13.7-6.075,20.586-9.039s13.8-5.867,20.8-8.561a186.8,186.8,0,0,1,21.389-7.006,76.254,76.254,0,0,1,11.1-1.97,51.262,51.262,0,0,1,5.648-.24,39.638,39.638,0,0,1,5.638.526,31.4,31.4,0,0,1,5.484,1.431l.67.234.654.274c.435.188.877.357,1.3.56.848.42,1.7.825,2.513,1.317a40.4,40.4,0,0,1,8.832,7.04,72.185,72.185,0,0,1,7.09,8.782c2.15,3.088,4.124,6.291,6,9.547,3.749,6.516,7.1,13.242,10.351,20.011s6.344,13.61,9.422,20.457l18.283,41.159Z" transform="translate(-37.997 -676.299)"/></g><g transform="translate(82.835 436.458)"><g transform="translate(0)"><path class="b" d="M600.015,859.92l-38.834-86.76L541.77,729.779c-3.252-7.222-6.526-14.434-9.931-21.582s-6.934-14.239-10.828-21.124c-3.913-6.856-8.2-13.571-13.629-19.293a39.9,39.9,0,0,0-9.208-7.269,31.121,31.121,0,0,0-11.072-3.675,38.15,38.15,0,0,0-5.861-.343c-.981-.015-1.96.078-2.939.119-.977.1-1.957.164-2.93.3a86.132,86.132,0,0,0-11.555,2.375,214.926,214.926,0,0,0-22.358,7.743c-7.336,2.929-14.6,6.053-21.834,9.227s-14.452,6.412-21.668,9.643l-43.283,19.424L8.4,860.7l-.87-1.972L354.237,704.341l43.338-19.3c7.226-3.211,14.45-6.427,21.7-9.585s14.529-6.262,21.887-9.176a215.7,215.7,0,0,1,22.462-7.707,86.946,86.946,0,0,1,11.66-2.361c.984-.135,1.977-.2,2.967-.3.994-.039,1.986-.129,2.982-.112a38.849,38.849,0,0,1,5.961.367,31.773,31.773,0,0,1,11.289,3.783,40.544,40.544,0,0,1,9.333,7.407c5.469,5.8,9.755,12.561,13.66,19.447,3.886,6.915,7.4,14.024,10.785,21.187s6.642,14.387,9.874,21.619l19.29,43.438Z" transform="translate(-7.529 -655.795)"/></g></g><g transform="translate(65.069 425.408)"><path class="b" d="M599,849.99l-40.94-91.473L537.6,712.777c-3.414-7.621-6.855-15.229-10.409-22.784-3.572-7.544-7.23-15.052-11.3-22.33-4.085-7.25-8.538-14.382-14.266-20.412a48.607,48.607,0,0,0-4.594-4.179,37.546,37.546,0,0,0-5.175-3.4,31.77,31.77,0,0,0-11.789-3.494,39.746,39.746,0,0,0-6.191-.142,58.1,58.1,0,0,0-6.176.639,98.874,98.874,0,0,0-12.122,2.815c-7.976,2.352-15.753,5.357-23.467,8.49-7.709,3.155-15.347,6.49-22.969,9.859l-22.832,10.2L340.671,688.52l-182.54,81.9-91.27,40.953L21.226,831.854l-22.839,10.2c-7.627,3.375-15.275,6.714-23,9.887l-.811-2c7.7-3.139,15.346-6.452,22.974-9.8l22.858-10.136L66.1,809.654l91.379-40.706,182.759-81.413,45.69-20.353,22.863-10.141c7.635-3.35,15.288-6.667,23.018-9.806,7.736-3.118,15.539-6.11,23.563-8.453a99.638,99.638,0,0,1,12.222-2.8,58.911,58.911,0,0,1,6.252-.63,40.471,40.471,0,0,1,6.291.162,32.446,32.446,0,0,1,12.019,3.6,38.186,38.186,0,0,1,5.26,3.472,49.194,49.194,0,0,1,4.645,4.248c5.775,6.114,10.222,13.289,14.3,20.57,4.065,7.308,7.706,14.834,11.26,22.392,3.535,7.569,6.957,15.189,10.351,22.82l20.338,45.8Z" transform="translate(25.426 -635.297)"/></g><g transform="translate(0.826 414.377)"><g transform="translate(0 0)"><path class="b" d="M558.664,841,513.005,738.963,490.18,687.94c-3.825-8.493-7.687-16.971-11.761-25.343-2.042-4.183-4.14-8.339-6.349-12.433s-4.523-8.133-7.073-12.017a79.025,79.025,0,0,0-8.482-11.009,47.412,47.412,0,0,0-5.1-4.689,34.761,34.761,0,0,0-5.843-3.677,31.114,31.114,0,0,0-6.477-2.349,34.64,34.64,0,0,0-6.838-.909,56.709,56.709,0,0,0-13.762,1.347,120.821,120.821,0,0,0-13.4,3.69c-4.406,1.455-8.759,3.072-13.083,4.768-8.646,3.4-17.178,7.091-25.687,10.834-17.006,7.519-33.955,15.183-50.93,22.78l-50.909,22.834L60.849,773.1-40.977,818.757c-8.5,3.783-17.01,7.542-25.6,11.143-8.6,3.573-17.27,7.028-26.218,9.778a102.761,102.761,0,0,1-13.685,3.287,48.58,48.58,0,0,1-14.189.379,32.643,32.643,0,0,1-13.405-4.935,47.222,47.222,0,0,1-10.517-9.584l1.651-1.383a45.117,45.117,0,0,0,10.01,9.18,30.517,30.517,0,0,0,12.548,4.652,46.556,46.556,0,0,0,13.586-.34,100.832,100.832,0,0,0,13.417-3.192c8.838-2.692,17.477-6.108,26.055-9.648,8.571-3.569,17.083-7.3,25.584-11.063L60.193,771.627l203.855-90.844,50.963-22.711c16.995-7.556,33.957-15.178,50.989-22.659,8.522-3.725,17.071-7.4,25.742-10.784,4.337-1.689,8.705-3.3,13.132-4.75a121.466,121.466,0,0,1,13.484-3.678,57.337,57.337,0,0,1,13.923-1.326,35.259,35.259,0,0,1,6.958.942,31.71,31.71,0,0,1,6.6,2.411,35.429,35.429,0,0,1,5.936,3.755,48,48,0,0,1,5.155,4.76,79.642,79.642,0,0,1,8.517,11.107c2.552,3.909,4.857,7.968,7.067,12.072s4.295,8.275,6.329,12.467c4.057,8.39,7.9,16.88,11.706,25.383l22.7,51.078Z" transform="translate(144.59 -614.836)"/></g></g><g transform="translate(0.261 403.317)"><g transform="translate(0 0)"><path class="b" d="M572.874,832.232,525.658,726.71l-23.6-52.766c-3.935-8.792-7.885-17.579-12.006-26.283s-8.4-17.341-13.331-25.6a102.836,102.836,0,0,0-8.14-11.871,47.482,47.482,0,0,0-10.389-9.813,30.776,30.776,0,0,0-13.231-5.041,47.465,47.465,0,0,0-14.258.41,102.944,102.944,0,0,0-13.945,3.43c-4.58,1.425-9.1,3.052-13.581,4.774-8.962,3.456-17.79,7.266-26.6,11.122-17.591,7.764-35.115,15.7-52.671,23.549l-52.647,23.611L60.68,756.68,8.034,780.291c-17.558,7.853-35.071,15.791-52.693,23.527-8.823,3.842-17.67,7.647-26.7,11.038-4.506,1.716-9.079,3.285-13.719,4.664a93.376,93.376,0,0,1-14.209,3.18,44.057,44.057,0,0,1-14.683-.3c-.6-.136-1.218-.229-1.814-.4l-1.781-.544c-.3-.093-.6-.177-.888-.278l-.861-.354-1.723-.71c-.561-.263-1.1-.569-1.655-.852a16.924,16.924,0,0,1-1.623-.907,34.192,34.192,0,0,1-3.063-2.092,54.4,54.4,0,0,1-10.237-10.515,121.688,121.688,0,0,1-8.021-12.163l1.859-1.085a119.7,119.7,0,0,0,7.843,11.958,52.362,52.362,0,0,0,9.808,10.136,32.2,32.2,0,0,0,2.885,1.981,15.251,15.251,0,0,0,1.521.854c.516.266,1.023.556,1.548.8l1.61.666.8.334c.274.095.555.173.831.26l1.666.514c.557.165,1.136.251,1.7.381a42.071,42.071,0,0,0,14.008.31,91.412,91.412,0,0,0,13.912-3.084c4.578-1.349,9.111-2.891,13.594-4.587,8.98-3.346,17.818-7.122,26.635-10.937,17.617-7.684,35.158-15.586,52.732-23.4l52.7-23.488,210.8-93.951,52.7-23.488c17.575-7.813,35.113-15.7,52.731-23.428,8.819-3.838,17.664-7.631,26.655-11.073,4.5-1.716,9.033-3.337,13.637-4.758a103.533,103.533,0,0,1,14.046-3.419,48.11,48.11,0,0,1,14.455-.379,31.392,31.392,0,0,1,13.476,5.169,48.07,48.07,0,0,1,10.5,9.957,103.377,103.377,0,0,1,8.157,11.954c4.932,8.3,9.179,16.963,13.3,25.673s8.034,17.517,11.949,26.319L525.9,726.6Z" transform="translate(145.639 -594.321)"/></g></g><g transform="translate(0.363 392.263)"><g transform="translate(0 0)"><path class="b" d="M586.9,821.762,538.1,712.7,513.7,658.164c-4.058-9.092-8.119-18.183-12.326-27.2s-8.545-17.987-13.485-26.616a120.748,120.748,0,0,0-8.091-12.494,54.114,54.114,0,0,0-10.241-10.674,32.861,32.861,0,0,0-6.309-3.817,30.961,30.961,0,0,0-7.014-2.234,44.314,44.314,0,0,0-14.721-.072c-2.444.366-4.877.824-7.281,1.419-1.208.27-2.4.615-3.6.922-1.188.35-2.386.667-3.567,1.044-4.739,1.453-9.414,3.124-14.049,4.9-9.267,3.561-18.388,7.505-27.487,11.5s-18.16,8.077-27.23,12.142l-27.207,12.2-54.414,24.4L59.025,741.18l-54.414,24.4-27.216,12.185c-9.083,4.041-18.179,8.064-27.376,11.876a249.06,249.06,0,0,1-28.157,10.1A79.5,79.5,0,0,1-92.951,802.5a38.9,38.9,0,0,1-15.114-1.559,35.678,35.678,0,0,1-13.019-7.9,68.719,68.719,0,0,1-9.723-11.586c-5.658-8.318-10.237-17.23-14.642-26.178l1.933-.947c4.362,8.914,8.9,17.777,14.427,25.943a66.7,66.7,0,0,0,9.4,11.258,33.648,33.648,0,0,0,12.258,7.489,36.928,36.928,0,0,0,14.338,1.5,77.509,77.509,0,0,0,14.45-2.66A247.3,247.3,0,0,0-50.7,787.9c9.175-3.779,18.269-7.776,27.356-11.795L3.9,763.98,58.369,739.7,276.244,642.59l54.469-24.278,27.234-12.139c9.079-4.044,18.154-8.1,27.262-12.083s18.251-7.9,27.548-11.447c4.649-1.768,9.342-3.434,14.107-4.883,1.187-.376,2.393-.692,3.588-1.042,1.208-.306,2.406-.65,3.623-.92,2.421-.594,4.876-1.05,7.345-1.415a44.97,44.97,0,0,1,14.939.111,31.618,31.618,0,0,1,7.15,2.3,33.475,33.475,0,0,1,6.416,3.9A54.671,54.671,0,0,1,480.256,591.5a121.289,121.289,0,0,1,8.1,12.57c4.935,8.665,9.244,17.657,13.445,26.685S510.033,648.9,514.071,658l24.27,54.59Z" transform="translate(145.449 -573.815)"/></g></g><g transform="translate(0.306 381.205)"><g transform="translate(0 0)"><path class="b" d="M601.093,811.988,550.545,699.019l-25.274-56.485c-4.2-9.42-8.388-18.844-12.7-28.209s-8.737-18.684-13.712-27.7a140.923,140.923,0,0,0-8.1-13.132,61.45,61.45,0,0,0-10.157-11.5,35.375,35.375,0,0,0-6.3-4.325,30.764,30.764,0,0,0-7.124-2.717,41.779,41.779,0,0,0-15.22-.543,94.034,94.034,0,0,0-14.988,3.372c-4.913,1.493-9.757,3.219-14.557,5.056-9.6,3.688-19.043,7.786-28.465,11.926s-18.807,8.375-28.2,12.584l-28.182,12.637L281.2,625.252,55.743,726.344-.621,751.616c-9.4,4.2-18.792,8.421-28.244,12.521-9.459,4.083-18.957,8.108-28.706,11.548a148.939,148.939,0,0,1-14.872,4.482,65.188,65.188,0,0,1-15.514,1.953,37.092,37.092,0,0,1-7.856-.92,32.271,32.271,0,0,1-7.459-2.727,42.13,42.13,0,0,1-12.224-9.9,92.2,92.2,0,0,1-9.143-12.661c-2.727-4.42-5.2-8.976-7.58-13.567-4.739-9.2-9.064-18.579-13.336-27.974l1.959-.89c4.245,9.389,8.541,18.757,13.229,27.9,2.356,4.565,4.8,9.087,7.475,13.448a90.274,90.274,0,0,0,8.91,12.4,40.145,40.145,0,0,0,11.616,9.468,32.1,32.1,0,0,0,14.443,3.463A63.294,63.294,0,0,0-72.88,778.3,147.081,147.081,0,0,0-58.193,773.9c9.676-3.39,19.159-7.383,28.609-11.438,9.445-4.073,18.845-8.27,28.251-12.451l56.419-25.15,225.674-100.6,56.418-25.15,28.209-12.575c9.4-4.189,18.8-8.392,28.234-12.525s18.9-8.2,28.525-11.878c4.816-1.831,9.679-3.552,14.618-5.041a94.7,94.7,0,0,1,15.107-3.363,42.42,42.42,0,0,1,15.456.59,31.393,31.393,0,0,1,7.262,2.788,35.935,35.935,0,0,1,6.4,4.413,62.041,62.041,0,0,1,10.233,11.631,141.411,141.411,0,0,1,8.1,13.2c4.967,9.054,9.362,18.4,13.669,27.768s8.466,18.813,12.644,28.242l25.151,56.539Z" transform="translate(145.556 -553.305)"/></g></g><g transform="translate(0 370.143)"><path class="b" d="M615.541,803.245l-52.427-117.17L536.9,627.489c-4.373-9.762-8.695-19.547-13.132-29.279s-8.953-19.43-13.969-28.865c-2.52-4.708-5.15-9.364-8.1-13.806-1.466-2.228-3.016-4.4-4.681-6.476a59.2,59.2,0,0,0-5.348-5.908,39.417,39.417,0,0,0-6.255-4.885,31.238,31.238,0,0,0-7.181-3.312,38.669,38.669,0,0,0-15.719-1.222,74.289,74.289,0,0,0-7.858,1.292q-3.89.876-7.723,2.008c-5.106,1.511-10.129,3.3-15.112,5.2-9.959,3.816-19.75,8.077-29.52,12.376s-19.5,8.693-29.249,13.058l-29.23,13.105-58.46,26.21L51.518,711.83-6.956,738.015c-9.764,4.33-19.548,8.631-29.477,12.616-4.968,1.983-9.971,3.9-15.062,5.591-2.541.857-5.111,1.638-7.7,2.367-2.6.7-5.212,1.349-7.864,1.857a52.241,52.241,0,0,1-16.222.819,32.992,32.992,0,0,1-7.965-2.039,33.744,33.744,0,0,1-7.206-3.964,45.047,45.047,0,0,1-6.163-5.384,68.5,68.5,0,0,1-5.233-6.225,127.619,127.619,0,0,1-8.728-13.6c-5.265-9.373-9.867-19.061-14.369-28.775-4.486-9.723-8.827-19.5-13.18-29.275l1.965-.877c4.332,9.779,8.65,19.564,13.107,29.276s9.038,19.365,14.232,28.656a125.787,125.787,0,0,0,8.558,13.4,66.558,66.558,0,0,0,5.065,6.053,42.99,42.99,0,0,0,5.879,5.16,31.752,31.752,0,0,0,6.784,3.752,31.06,31.06,0,0,0,7.5,1.936,50.4,50.4,0,0,0,15.624-.769c2.592-.491,5.162-1.12,7.719-1.807,2.552-.714,5.091-1.479,7.61-2.323,5.044-1.665,10.023-3.558,14.973-5.522,9.9-3.948,19.676-8.223,29.443-12.529l58.524-26.06L284.923,606l58.515-26.087L372.7,566.873c9.754-4.346,19.5-8.706,29.28-13s19.591-8.524,29.581-12.329c5-1.891,10.041-3.68,15.175-5.188q3.851-1.132,7.776-2a74.925,74.925,0,0,1,7.935-1.287,39.314,39.314,0,0,1,15.979,1.281,31.907,31.907,0,0,1,7.318,3.394,39.993,39.993,0,0,1,6.344,4.975,59.609,59.609,0,0,1,5.392,5.979c1.674,2.1,3.23,4.285,4.7,6.527,2.958,4.471,5.586,9.145,8.1,13.869,5.007,9.465,9.5,19.185,13.923,28.923s8.72,19.539,13.073,29.31l26.09,58.64Z" transform="translate(146.123 -532.785)"/></g><g transform="translate(0.706 359.091)"><g transform="translate(0 0)"><path class="b" d="M630.393,793.481,576.268,672.512,549.2,612.027l-13.534-30.24c-4.558-10.056-9.162-20.1-14.223-29.9-2.542-4.894-5.182-9.742-8.122-14.4-1.458-2.337-3-4.62-4.643-6.824a65.593,65.593,0,0,0-5.279-6.32,33.794,33.794,0,0,0-29.5-11.232,65.3,65.3,0,0,0-8.129,1.2c-2.688.552-5.353,1.225-7.99,2-5.284,1.515-10.471,3.37-15.617,5.32-10.286,3.93-20.392,8.336-30.477,12.778l-120.73,54.074L49.536,696.709,19.357,710.238c-10.064,4.5-20.121,9.019-30.249,13.4-5.065,2.187-10.149,4.335-15.275,6.391s-10.293,4.027-15.551,5.766a117.913,117.913,0,0,1-16.089,4.277,48.918,48.918,0,0,1-16.759.47,32.508,32.508,0,0,1-8.122-2.464,35.329,35.329,0,0,1-7.209-4.465,59.594,59.594,0,0,1-11.29-12.4,146.1,146.1,0,0,1-8.723-14.2c-2.666-4.863-5.146-9.814-7.56-14.792-4.814-9.963-9.345-20.044-13.856-30.127l-13.488-30.262,1.964-.879,13.426,30.288c4.489,10.087,8.994,20.164,13.769,30.1,2.4,4.962,4.852,9.893,7.484,14.719A144.358,144.358,0,0,0-99.6,720.079,57.74,57.74,0,0,0-88.708,732.1a33.409,33.409,0,0,0,6.809,4.239,30.594,30.594,0,0,0,7.648,2.335,47.087,47.087,0,0,0,16.12-.434,116.07,116.07,0,0,0,15.844-4.18c5.21-1.712,10.351-3.665,15.461-5.7s10.184-4.17,15.245-6.342c10.119-4.35,20.183-8.847,30.255-13.326l30.206-13.467,241.646-107.74,120.843-53.829c10.1-4.424,20.221-8.813,30.539-12.731,5.164-1.944,10.369-3.8,15.685-5.307,2.653-.77,5.337-1.442,8.047-1.993a65.985,65.985,0,0,1,8.214-1.2A34.427,34.427,0,0,1,503.84,523.92a66.339,66.339,0,0,1,5.314,6.387c1.651,2.223,3.2,4.523,4.655,6.872,2.942,4.686,5.578,9.551,8.115,14.459,5.05,9.832,9.636,19.887,14.175,29.955l13.474,30.27,26.94,60.539Z" transform="translate(144.814 -512.286)"/></g></g><g transform="translate(0.546 348.039)"><g transform="translate(0 0)"><path class="b" d="M644.578,783.876,588.637,658.848l-27.971-62.514-13.977-31.26c-4.69-10.4-9.41-20.8-14.546-30.982-2.574-5.088-5.256-10.123-8.2-15a93.9,93.9,0,0,0-9.92-13.848,38.615,38.615,0,0,0-13.412-10.163,31.725,31.725,0,0,0-8.121-2.263,41.059,41.059,0,0,0-8.453-.272,80.145,80.145,0,0,0-16.678,3.178c-5.464,1.557-10.824,3.475-16.142,5.5-10.626,4.074-21.064,8.645-31.486,13.239L294.951,570.355,45.422,682.21l-31.2,13.963C3.8,700.8-6.626,705.4-17.223,709.654c-5.3,2.122-10.648,4.138-16.089,5.917-2.721.887-5.463,1.722-8.245,2.435s-5.584,1.36-8.437,1.8a45.417,45.417,0,0,1-17.325-.2,31.327,31.327,0,0,1-8.189-3.134,38.179,38.179,0,0,1-7.1-5.105,69.228,69.228,0,0,1-11.058-13.308c-3.192-4.789-5.995-9.8-8.686-14.855-5.327-10.14-10.108-20.525-14.831-30.923s-9.32-20.847-13.98-31.266l-13.95-31.271,1.963-.879,13.89,31.3c4.64,10.43,9.229,20.882,13.913,31.282s9.448,20.764,14.718,30.844c2.66,5.022,5.428,9.99,8.557,14.7a67.379,67.379,0,0,0,10.72,12.968A32.229,32.229,0,0,0-66.9,717.8a43.637,43.637,0,0,0,16.623.208c2.779-.422,5.533-1.049,8.269-1.747s5.449-1.515,8.144-2.388c5.391-1.75,10.712-3.744,15.993-5.847,10.562-4.21,20.989-8.794,31.408-13.394l31.225-13.9L294.514,569.37,419.4,513.722c10.436-4.576,20.89-9.129,31.549-13.192,5.334-2.014,10.715-3.928,16.211-5.482a80.769,80.769,0,0,1,16.829-3.169,41.718,41.718,0,0,1,8.588.294,32.391,32.391,0,0,1,8.281,2.326,33.714,33.714,0,0,1,7.379,4.424,47.538,47.538,0,0,1,6.231,5.923A94.5,94.5,0,0,1,524.43,518.8c2.948,4.9,5.626,9.949,8.193,15.049,5.124,10.208,9.825,20.617,14.5,31.032l13.916,31.289,27.848,62.568Z" transform="translate(145.11 -491.784)"/></g></g><g transform="translate(0.707 336.982)"><g transform="translate(0 0)"><path class="c" d="M659.156,774.533l-57.73-129.026-28.865-64.513-14.419-32.262c-4.821-10.745-9.656-21.488-14.864-32.046-2.606-5.276-5.317-10.5-8.267-15.588a108.552,108.552,0,0,0-9.866-14.566,42.112,42.112,0,0,0-13.318-11.187,31.394,31.394,0,0,0-8.239-2.785,38.584,38.584,0,0,0-8.7-.581,75.7,75.7,0,0,0-17.244,3.044c-5.644,1.587-11.184,3.542-16.67,5.631-10.969,4.2-21.736,8.927-32.489,13.672l-128.77,57.681L42.2,667.431c-10.733,4.8-21.457,9.627-32.247,14.322C4.556,684.1-.86,686.4-6.322,688.6s-10.966,4.321-16.575,6.172q-4.2,1.41-8.492,2.555a86.724,86.724,0,0,1-8.694,1.9,45.567,45.567,0,0,1-17.865-.195,31.971,31.971,0,0,1-8.4-3.338,38.843,38.843,0,0,1-7.235-5.379,74.217,74.217,0,0,1-11.206-13.886c-3.213-4.988-6.1-10.162-8.815-15.405s-5.3-10.552-7.81-15.89c-5.013-10.677-9.8-21.447-14.591-32.207l-28.8-64.54,1.963-.88,28.681,64.6c4.774,10.768,9.533,21.539,14.512,32.2,2.491,5.327,5.05,10.62,7.745,15.835s5.541,10.347,8.7,15.265A72.413,72.413,0,0,0-72.33,688.959a36.992,36.992,0,0,0,6.881,5.139,30.158,30.158,0,0,0,7.924,3.166,43.8,43.8,0,0,0,17.157.2,84.971,84.971,0,0,0,8.529-1.844q4.228-1.121,8.395-2.509c5.559-1.822,11.036-3.927,16.484-6.1s10.854-4.474,16.247-6.8c10.783-4.668,21.515-9.471,32.256-14.253L299.276,551.022l128.882-57.436c10.767-4.727,21.55-9.438,32.552-13.625,5.5-2.083,11.065-4.035,16.743-5.619a76.346,76.346,0,0,1,17.408-3.036,39.261,39.261,0,0,1,8.849.608,32.05,32.05,0,0,1,8.4,2.859,42.726,42.726,0,0,1,13.5,11.372,109.112,109.112,0,0,1,9.894,14.665c2.949,5.108,5.655,10.349,8.255,15.637,5.194,10.58,10.01,21.335,14.811,32.092l14.358,32.29L601.672,645.4Z" transform="translate(144.811 -471.275)"/></g></g><g transform="translate(0.284 325.931)"><g transform="translate(0)"><path class="c" d="M673.492,765.771l-59.624-133.26L584.057,565.88l-14.895-33.32c-4.966-11.105-9.929-22.213-15.223-33.16-2.649-5.471-5.4-10.9-8.357-16.2a125.523,125.523,0,0,0-9.842-15.287c-3.691-4.777-7.987-9.2-13.221-12.2a30.781,30.781,0,0,0-8.341-3.33,37.315,37.315,0,0,0-8.952-.928,72.349,72.349,0,0,0-17.84,2.883c-2.917.81-5.806,1.719-8.679,2.683-2.865.989-5.719,2.009-8.55,3.1-11.329,4.335-22.445,9.23-33.55,14.135L303.614,533.825,37.642,653.02c-11.095,4.941-22.193,9.888-33.453,14.492C-1.443,669.8-7.125,672-12.9,673.957a117.813,117.813,0,0,1-17.72,4.688,57.24,57.24,0,0,1-9.2.851,38.091,38.091,0,0,1-9.241-1.026,32.827,32.827,0,0,1-8.635-3.54,38.824,38.824,0,0,1-7.374-5.67,77.482,77.482,0,0,1-11.357-14.495c-3.28-5.174-6.182-10.554-8.976-15.975-5.534-10.872-10.565-21.965-15.56-33.062l-14.879-33.33L-145.6,505.744l1.963-.88L-114,571.574l14.816,33.352c4.97,11.1,9.974,22.182,15.457,33,2.767,5.394,5.639,10.737,8.862,15.843a75.7,75.7,0,0,0,11.053,14.174,37,37,0,0,0,7.027,5.428,31.053,31.053,0,0,0,8.152,3.361,44.027,44.027,0,0,0,17.722.18,116.1,116.1,0,0,0,17.462-4.588c5.727-1.933,11.384-4.1,17-6.378,11.23-4.568,22.329-9.49,33.43-14.409l266.189-118.7,133.106-59.329c11.118-4.887,22.25-9.764,33.614-14.088,2.838-1.086,5.7-2.1,8.58-3.09,2.885-.962,5.789-1.87,8.724-2.679a73.027,73.027,0,0,1,18.019-2.874,37.959,37.959,0,0,1,9.11.963,31.418,31.418,0,0,1,8.507,3.414c5.332,3.077,9.67,7.568,13.38,12.388a126.142,126.142,0,0,1,9.863,15.379c2.959,5.324,5.7,10.761,8.343,16.243,5.279,10.968,10.223,22.087,15.169,33.2l14.833,33.348L614.114,632.4Z" transform="translate(145.596 -450.776)"/></g></g><g transform="translate(0.381 314.877)"><path class="c" d="M687.568,755.43,626.2,618.279,595.523,549.7l-15.334-34.291c-5.1-11.433-10.193-22.873-15.584-34.168-2.706-5.641-5.5-11.243-8.486-16.733a136.63,136.63,0,0,0-9.924-15.872c-3.712-4.986-8.008-9.643-13.281-12.928a31.321,31.321,0,0,0-8.491-3.651,35.187,35.187,0,0,0-9.19-1.114,71.463,71.463,0,0,0-18.366,2.9c-6,1.669-11.894,3.744-17.723,5.973-11.649,4.491-23.086,9.536-34.511,14.6L307.757,515.73,33.99,638.348c-11.453,5.014-22.94,9.995-34.762,14.192a133.935,133.935,0,0,1-18.122,5.184,64.174,64.174,0,0,1-9.413,1.2,39.736,39.736,0,0,1-9.532-.613,33.054,33.054,0,0,1-9.054-3.185,38.694,38.694,0,0,1-7.774-5.592,74.388,74.388,0,0,1-11.88-14.763c-3.391-5.316-6.394-10.844-9.267-16.425-2.853-5.592-5.561-11.248-8.208-16.93-5.286-11.366-10.343-22.824-15.445-34.258l-15.317-34.3-30.633-68.6,1.963-.881,30.512,68.653,15.256,34.326c5.082,11.444,10.116,22.906,15.371,34.256,2.63,5.673,5.32,11.315,8.148,16.881,2.846,5.553,5.817,11.043,9.15,16.289a72.656,72.656,0,0,0,11.554,14.426,36.94,36.94,0,0,0,7.4,5.349,31.292,31.292,0,0,0,8.559,3.026c5.992,1.17,12.233.62,18.282-.554a132.332,132.332,0,0,0,17.9-5.088c11.744-4.146,23.222-9.1,34.671-14.083L307.319,514.745l136.988-61.071c11.438-5.041,22.89-10.069,34.574-14.549,5.846-2.223,11.759-4.3,17.8-5.963a72.125,72.125,0,0,1,18.552-2.891,35.858,35.858,0,0,1,9.356,1.153,31.968,31.968,0,0,1,8.66,3.742c5.369,3.36,9.7,8.083,13.431,13.11a137.211,137.211,0,0,1,9.94,15.96c2.988,5.509,5.771,11.124,8.47,16.775,5.375,11.315,10.446,22.766,15.529,34.209l15.272,34.319,30.559,68.631Z" transform="translate(145.417 -430.271)"/></g><g transform="translate(0.859 303.812)"><path class="c" d="M702.108,745.387,639.036,604.414,607.5,533.928l-15.767-35.244c-5.242-11.753-10.451-23.523-15.941-35.157-2.756-5.81-5.568-11.6-8.6-17.266q-2.253-4.262-4.718-8.4c-1.637-2.761-3.365-5.469-5.222-8.082a72.272,72.272,0,0,0-6.02-7.474,42.842,42.842,0,0,0-7.2-6.281,32.132,32.132,0,0,0-8.553-4.14,35.623,35.623,0,0,0-9.4-1.446,52.862,52.862,0,0,0-9.529.721,88.353,88.353,0,0,0-9.368,2.054c-6.18,1.681-12.234,3.819-18.225,6.109-11.973,4.62-23.725,9.815-35.465,15.021L312.81,497.366,172.128,560.41l-70.341,31.522-35.17,15.761c-11.73,5.24-23.447,10.514-35.282,15.545-5.918,2.514-11.878,4.943-17.909,7.2a170.535,170.535,0,0,1-18.442,5.867,78.232,78.232,0,0,1-9.565,1.78,47,47,0,0,1-9.786.2,33.025,33.025,0,0,1-9.582-2.264,34.2,34.2,0,0,1-8.49-5,64.226,64.226,0,0,1-12.843-14.655c-1.811-2.69-3.491-5.459-5.1-8.263s-3.151-5.642-4.636-8.507c-2.98-5.725-5.777-11.534-8.506-17.37s-5.388-11.7-8.025-17.573l-62.981-141.015,1.963-.881,62.734,141.123c2.625,5.872,5.27,11.734,7.983,17.56s5.489,11.62,8.441,17.315c1.471,2.85,2.992,5.672,4.585,8.448s3.242,5.518,5.019,8.167a62.555,62.555,0,0,0,12.447,14.276,32.455,32.455,0,0,0,8.053,4.76,31.311,31.311,0,0,0,9.091,2.161c6.265.578,12.625-.409,18.8-1.9a168.934,168.934,0,0,0,18.267-5.778c6-2.238,11.944-4.647,17.854-7.146,11.819-5,23.542-10.253,35.28-15.471l35.2-15.7,70.4-31.4,140.791-62.8,140.8-62.78c11.754-5.187,23.521-10.364,35.528-14.974,6.009-2.285,12.086-4.42,18.305-6.1a89.176,89.176,0,0,1,9.444-2.053,53.49,53.49,0,0,1,9.652-.712,36.252,36.252,0,0,1,9.576,1.492,32.792,32.792,0,0,1,8.72,4.238,43.451,43.451,0,0,1,7.29,6.385,72.824,72.824,0,0,1,6.06,7.548c1.864,2.634,3.6,5.357,5.234,8.131s3.217,5.584,4.717,8.434c3.025,5.687,5.829,11.485,8.577,17.305,5.475,11.653,10.664,23.433,15.885,35.2l15.706,35.271L639.281,604.3Z" transform="translate(144.529 -409.748)"/></g><g transform="translate(0.816 284.501)"><path class="c" d="M716.707,729.424,651.8,584.344,619.342,511.8l-16.227-36.27c-5.409-12.09-10.745-24.213-16.339-36.214-2.8-6-5.658-11.971-8.709-17.841q-2.275-4.41-4.737-8.715c-1.641-2.869-3.356-5.695-5.2-8.432a82.814,82.814,0,0,0-5.955-7.89,47.528,47.528,0,0,0-7.1-6.812,31.809,31.809,0,0,0-18.132-6.695c-6.559-.356-13.117.829-19.476,2.487a185.4,185.4,0,0,0-18.777,6.217c-12.326,4.74-24.415,10.1-36.5,15.459L317.4,471.96,172.616,536.837l-72.391,32.439-36.2,16.206c-12.087,5.364-24.17,10.754-36.505,15.593q-4.624,1.817-9.318,3.468c-3.127,1.1-6.289,2.126-9.486,3.038A74.583,74.583,0,0,1-11,610.872a36.235,36.235,0,0,1-10.03-1.248,32.9,32.9,0,0,1-4.788-1.718,34.633,34.633,0,0,1-4.442-2.472,42.312,42.312,0,0,1-7.694-6.542,72.722,72.722,0,0,1-6.321-7.8,156.813,156.813,0,0,1-10.288-17.108c-3.108-5.872-6.007-11.842-8.835-17.839-5.632-12.006-10.984-24.126-16.379-36.223L-144.61,374.807l1.963-.881,64.584,145.229c5.374,12.105,10.7,24.229,16.3,36.215,2.81,5.986,5.689,11.939,8.766,17.777a155.142,155.142,0,0,0,10.14,16.929A70.954,70.954,0,0,0-36.7,597.7a40.563,40.563,0,0,0,7.375,6.3,31.9,31.9,0,0,0,18.316,5.192,73,73,0,0,0,19.273-3.195c3.159-.9,6.292-1.9,9.4-2.993s6.2-2.231,9.271-3.432c12.289-4.8,24.374-10.162,36.463-15.5l36.228-16.144,72.446-32.315,144.893-64.631,144.9-64.615c12.1-5.34,24.2-10.682,36.562-15.413a186.094,186.094,0,0,1,18.862-6.209c6.4-1.656,13.023-2.848,19.694-2.475a32.458,32.458,0,0,1,18.479,6.859,48.1,48.1,0,0,1,7.185,6.913,83.3,83.3,0,0,1,5.987,7.959c1.851,2.755,3.569,5.6,5.21,8.476s3.219,5.8,4.733,8.744c3.047,5.887,5.893,11.872,8.689,17.877,5.578,12.018,10.893,24.151,16.282,36.25l16.166,36.3,32.332,72.6Z" transform="translate(144.61 -373.926)"/></g><g transform="translate(0.714 252.044)"><path class="c" d="M731.463,702.683,597.839,404.19c-2.855-6.184-5.755-12.347-8.828-18.421q-2.294-4.561-4.757-9.031c-1.641-2.979-3.352-5.92-5.181-8.783-3.654-5.71-7.732-11.23-12.842-15.674a35.378,35.378,0,0,0-8.472-5.452,31.805,31.805,0,0,0-9.723-2.549c-6.724-.7-13.512.414-20.068,2.043-3.289.819-6.535,1.811-9.756,2.875s-6.418,2.212-9.59,3.425c-12.692,4.85-25.124,10.378-37.555,15.891L322.1,435.241,173.145,501.984,98.666,535.356c-12.416,5.557-24.816,11.145-37.276,16.62-6.233,2.731-12.485,5.422-18.791,8s-12.668,5.033-19.164,7.149a99.4,99.4,0,0,1-20,4.649,46.266,46.266,0,0,1-10.363-.012,32.933,32.933,0,0,1-10.006-2.905,36.191,36.191,0,0,1-8.624-5.828,58.383,58.383,0,0,1-7.016-7.609,130.5,130.5,0,0,1-11.05-17.328c-3.275-6-6.308-12.123-9.234-18.286s-5.761-12.365-8.564-18.579L-78.1,463.9-144.8,314.6l1.963-.881,66.46,149.408,16.612,37.348c2.789,6.213,5.608,12.41,8.517,18.56s5.918,12.249,9.159,18.212A128.825,128.825,0,0,0-31.221,554.36a56.643,56.643,0,0,0,6.795,7.4,34.537,34.537,0,0,0,8.216,5.577,31.261,31.261,0,0,0,9.495,2.772,44.652,44.652,0,0,0,9.985.024,97.9,97.9,0,0,0,19.669-4.545c6.44-2.086,12.774-4.532,19.067-7.078s12.536-5.235,18.766-7.952C73.229,545.107,85.64,539.538,98.065,534L172.6,500.754l149.068-66.5,149.075-66.483c12.444-5.494,24.891-11,37.621-15.845q4.773-1.815,9.626-3.42c3.236-1.062,6.5-2.054,9.811-2.873,6.6-1.628,13.461-2.746,20.309-2.027a32.491,32.491,0,0,1,9.919,2.62,36.013,36.013,0,0,1,8.622,5.566c5.179,4.52,9.273,10.091,12.936,15.834,1.833,2.88,3.544,5.834,5.185,8.824s3.225,6.01,4.752,9.058c3.069,6.089,5.961,12.262,8.807,18.454Z" transform="translate(144.799 -313.721)"/></g><g transform="translate(0.874 220.18)"><path class="c" d="M745.776,674.959l-137.1-306.35c-2.906-6.358-5.872-12.688-8.977-18.947s-6.372-12.439-10.019-18.387c-1.827-2.97-3.77-5.869-5.879-8.639a57.952,57.952,0,0,0-6.965-7.736l-.964-.873-1-.824c-.657-.566-1.376-1.05-2.067-1.569a32.963,32.963,0,0,0-4.461-2.63,31.488,31.488,0,0,0-9.885-2.933,45.281,45.281,0,0,0-10.362,0,76.235,76.235,0,0,0-10.24,1.878,178.712,178.712,0,0,0-19.856,6.457c-13.022,4.989-25.774,10.678-38.53,16.339L326.584,399.229,173.712,467.724,97.275,501.971c-12.746,5.694-25.472,11.437-38.336,16.894-6.44,2.709-12.912,5.359-19.5,7.739a140.148,140.148,0,0,1-20.188,5.911,60.688,60.688,0,0,1-10.52,1.23c-.888,0-1.775.032-2.664-.025l-1.333-.061-1.331-.128-.665-.065-.662-.1-1.324-.2-1.312-.279-.656-.141-.647-.178-1.293-.361-1.27-.439-.633-.223-.62-.259-1.238-.523c-.8-.406-1.622-.763-2.387-1.228-.388-.224-.781-.439-1.162-.671l-1.123-.732a43.9,43.9,0,0,1-8.014-7.015,99.255,99.255,0,0,1-12.14-17.271c-1.762-3.038-3.429-6.126-5.039-9.24s-3.176-6.249-4.7-9.4c-6.1-12.613-11.748-25.411-17.448-38.183l-17.111-38.306L-144.5,255.5l1.963-.881L-74.32,407.944l17.05,38.334c5.678,12.778,11.308,25.578,17.362,38.159,1.515,3.143,3.062,6.271,4.665,9.366s3.247,6.167,4.986,9.179a97.657,97.657,0,0,0,11.895,16.992,42.24,42.24,0,0,0,7.7,6.767l1.07.7c.363.221.736.425,1.1.639.727.445,1.508.782,2.264,1.171l1.173.5.587.247.6.211,1.2.419,1.227.343.614.171.623.134,1.247.268,1.262.2.631.1.637.062,1.273.126,1.28.06c.853.058,1.711.027,2.566.029a59.135,59.135,0,0,0,10.244-1.184,138.532,138.532,0,0,0,19.963-5.813c6.547-2.354,13-4.986,19.432-7.678,12.846-5.426,25.58-11.147,38.334-16.82l76.491-34.124,152.983-68.248,152.988-68.235c12.768-5.642,25.535-11.313,38.595-16.293a179.4,179.4,0,0,1,19.95-6.45,76.87,76.87,0,0,1,10.336-1.878,45.924,45.924,0,0,1,10.52.014,32.16,32.16,0,0,1,10.087,3.011,33.725,33.725,0,0,1,4.545,2.69c.7.529,1.434,1.024,2.1,1.6l1.019.838.976.887a58.488,58.488,0,0,1,7.028,7.83c2.121,2.795,4.07,5.713,5.9,8.7,3.653,5.979,6.908,12.183,10.016,18.45s6.057,12.613,8.954,18.978Z" transform="translate(144.501 -254.616)"/></g><g transform="translate(0.815 187.825)"><path class="c" d="M759.783,646.549,619.165,332.291c-2.975-6.524-5.984-13.034-9.144-19.468s-6.451-12.8-10.143-18.937c-3.7-6.111-7.781-12.06-12.907-17.021a37.7,37.7,0,0,0-8.578-6.253,32.729,32.729,0,0,0-4.9-2.031l-1.278-.361-.64-.178-.649-.139-1.3-.275-1.314-.2c-.437-.077-.877-.123-1.319-.161l-1.324-.125c-.887-.024-1.771-.108-2.66-.082l-1.332.009c-.444.009-.887.043-1.331.063-.888.031-1.773.124-2.658.21a76.127,76.127,0,0,0-10.506,1.913,182.368,182.368,0,0,0-20.358,6.656c-13.346,5.147-26.42,11-39.5,16.81L330.5,362.968,173.683,433.225,95.27,468.345c-13.085,5.818-26.159,11.683-39.517,16.927a203.918,203.918,0,0,1-20.4,6.94,87.85,87.85,0,0,1-10.592,2.239,50.232,50.232,0,0,1-10.878.456c-.909-.089-1.821-.158-2.724-.319-.908-.118-1.8-.322-2.7-.515a31.678,31.678,0,0,1-5.223-1.724l-.636-.266-.619-.3-1.234-.611c-.79-.465-1.612-.881-2.366-1.4a39.915,39.915,0,0,1-4.394-3.282c-5.506-4.825-9.8-10.763-13.616-16.863C-23.442,463.5-26.8,457.122-30,450.691s-6.237-12.943-9.218-19.473c-5.957-13.061-11.724-26.2-17.6-39.283l-17.558-39.291-70.232-157.163,1.963-.881L-72.66,351.877l17.5,39.319c5.855,13.1,11.6,26.243,17.531,39.294,2.966,6.525,5.992,13.019,9.163,19.436s6.508,12.747,10.265,18.8c3.761,6.033,7.973,11.855,13.267,16.505a38.13,38.13,0,0,0,4.2,3.149c.719.5,1.5.894,2.25,1.34l1.171.582.587.288.6.253a30.067,30.067,0,0,0,4.957,1.644c.853.185,1.7.382,2.57.495.86.156,1.734.222,2.6.309a48.646,48.646,0,0,0,10.529-.428,86.25,86.25,0,0,0,10.4-2.184,202.31,202.31,0,0,0,20.252-6.856c13.311-5.2,26.387-11.042,39.477-16.837l78.466-35,156.925-70.011,156.93-70c13.1-5.791,26.184-11.626,39.568-16.764a183.159,183.159,0,0,1,20.452-6.65,76.687,76.687,0,0,1,10.6-1.913c.9-.086,1.791-.178,2.692-.209.45-.019.9-.053,1.349-.062l1.352-.007c.9-.024,1.8.063,2.7.088l1.348.129c.45.039.9.087,1.343.166l1.339.208,1.326.283.662.143.653.183c.435.124.872.239,1.3.37a33.372,33.372,0,0,1,5,2.083,38.355,38.355,0,0,1,8.719,6.373c5.186,5.035,9.281,11.029,12.984,17.171,3.7,6.163,6.977,12.556,10.138,19s6.154,12.964,9.121,19.5Z" transform="translate(144.611 -194.601)"/></g><g transform="translate(0.5 154.899)"><path class="c" d="M773.9,618.376,629.613,295.887c-3.035-6.7-6.107-13.391-9.314-20.011s-6.547-13.176-10.246-19.524c-1.859-3.167-3.815-6.277-5.938-9.266a66.828,66.828,0,0,0-6.99-8.454,38.709,38.709,0,0,0-8.6-6.7c-.779-.473-1.615-.834-2.427-1.243-.841-.342-1.667-.727-2.534-1a30.376,30.376,0,0,0-5.275-1.343l-1.348-.207-1.357-.133-.679-.066-.682-.03-1.364-.059a50.359,50.359,0,0,0-5.461.235,75.275,75.275,0,0,0-10.789,1.9,181.834,181.834,0,0,0-20.893,6.822c-6.847,2.64-13.62,5.479-20.36,8.394S501.9,251.1,495.2,254.1L334.272,326.183,173.351,398.275,133.121,416.3c-13.414,6-26.808,12.038-40.255,17.978-6.728,2.96-13.466,5.9-20.269,8.7s-13.659,5.495-20.67,7.793A97.078,97.078,0,0,1,30.3,455.65a42.428,42.428,0,0,1-11.184-.476,34.946,34.946,0,0,1-5.433-1.519A33.643,33.643,0,0,1,8.606,451.2a42.005,42.005,0,0,1-8.714-7.055,73.98,73.98,0,0,1-7-8.677A170.631,170.631,0,0,1-18.34,416.352c-3.388-6.557-6.552-13.215-9.647-19.9s-6.108-13.4-9.11-20.127l-36.024-80.644L-145.2,134.407l1.963-.881L-71.4,294.913l35.9,80.7c2.99,6.724,5.995,13.44,9.069,20.12s6.225,13.322,9.584,19.848A169.029,169.029,0,0,0-5.76,434.519a72.415,72.415,0,0,0,6.827,8.492,40.408,40.408,0,0,0,8.36,6.8,32.023,32.023,0,0,0,4.825,2.343,33.381,33.381,0,0,0,5.164,1.452,40.827,40.827,0,0,0,10.761.47A95.621,95.621,0,0,0,51.448,449.3c6.954-2.269,13.787-4.944,20.575-7.723s13.523-5.709,20.249-8.657c13.445-5.914,26.852-11.933,40.275-17.912L172.8,397.044,333.834,325.2l161.034-71.839c6.714-2.984,13.435-5.957,20.186-8.862s13.535-5.739,20.4-8.375a182.7,182.7,0,0,1,20.989-6.816,75.985,75.985,0,0,1,10.892-1.905,51.027,51.027,0,0,1,5.538-.229l1.387.061.694.032.691.067,1.383.137,1.374.213a31.049,31.049,0,0,1,5.384,1.379c.886.281,1.729.674,2.587,1.026.828.417,1.682.789,2.475,1.272a39.335,39.335,0,0,1,8.73,6.822,67.378,67.378,0,0,1,7.043,8.543c2.133,3.013,4.092,6.14,5.953,9.321,3.7,6.376,7.039,12.949,10.238,19.581s6.264,13.328,9.289,20.039Z" transform="translate(145.196 -133.526)"/></g><g transform="translate(0.793 123.339)"><g transform="translate(0)"><path class="c" d="M788.338,590.944,640.588,260.673c-3.094-6.872-6.23-13.725-9.474-20.524-3.259-6.791-6.624-13.535-10.348-20.075a98.9,98.9,0,0,0-12.908-18.4,41.838,41.838,0,0,0-8.569-7.167,34.153,34.153,0,0,0-5-2.48,32.261,32.261,0,0,0-5.357-1.543,35.472,35.472,0,0,0-5.547-.625c-.931-.062-1.865-.022-2.8-.024-.932.039-1.866.077-2.8.156a74.131,74.131,0,0,0-11.06,1.872,179.291,179.291,0,0,0-21.4,6.954c-7.012,2.705-13.945,5.621-20.847,8.609s-13.776,6.046-20.646,9.113l-164.8,73.821-164.8,73.827-41.2,18.457c-13.737,6.143-27.45,12.341-41.278,18.306-6.921,2.966-13.872,5.877-20.933,8.53a159.59,159.59,0,0,1-21.641,6.717,67.1,67.1,0,0,1-11.3,1.538c-.954.045-1.912.035-2.868.03-.957-.047-1.915-.06-2.87-.175a33.4,33.4,0,0,1-5.676-1A32.733,32.733,0,0,1,16.052,411.7a47.162,47.162,0,0,1-8.423-7.774A113.1,113.1,0,0,1-5.028,385.04c-3.676-6.614-7.007-13.4-10.244-20.213-6.453-13.646-12.5-27.461-18.656-41.221l-36.908-82.581L-144.652,75.865l1.963-.881,73.572,165.273,36.786,82.637c6.137,13.77,12.162,27.59,18.578,41.211,3.217,6.8,6.527,13.565,10.164,20.133A111.581,111.581,0,0,0,8.846,402.863a45.608,45.608,0,0,0,8.121,7.524,31.138,31.138,0,0,0,9.9,4.668,31.816,31.816,0,0,0,5.418.963c.914.112,1.838.125,2.758.173.923.005,1.847.017,2.771-.025a65.552,65.552,0,0,0,11.032-1.487,158.02,158.02,0,0,0,21.438-6.622c7.029-2.629,13.967-5.522,20.881-8.472,13.815-5.936,27.539-12.114,41.285-18.236l41.228-18.395L338.6,289.372,503.51,215.8c6.876-3.056,13.755-6.108,20.668-9.086s13.857-5.889,20.888-8.59a180.084,180.084,0,0,1,21.5-6.95,74.9,74.9,0,0,1,11.168-1.872c.942-.08,1.89-.116,2.835-.154.947,0,1.894-.036,2.842.028a36.156,36.156,0,0,1,5.649.646,32.916,32.916,0,0,1,5.468,1.584,34.79,34.79,0,0,1,5.1,2.54,42.494,42.494,0,0,1,8.694,7.29,99.494,99.494,0,0,1,12.968,18.54c3.726,6.566,7.085,13.325,10.337,20.128,3.237,6.811,6.364,13.672,9.449,20.55Z" transform="translate(144.652 -74.984)"/></g></g><g transform="translate(0.818 91.18)"><g transform="translate(0 0)"><path class="c" d="M803.057,564.131,651.642,225.649c-3.164-7.046-6.349-14.084-9.642-21.067s-6.7-13.918-10.425-20.67a113.274,113.274,0,0,0-12.8-19.181,46.042,46.042,0,0,0-8.446-7.751,36.132,36.132,0,0,0-4.97-2.833,34.142,34.142,0,0,0-5.4-1.877,37.2,37.2,0,0,0-5.649-.886,43.539,43.539,0,0,0-5.731-.03,66.607,66.607,0,0,0-11.359,1.72,170.944,170.944,0,0,0-21.966,7.02c-7.191,2.758-14.3,5.749-21.369,8.81s-14.117,6.2-21.158,9.342L343.831,253.9l-168.9,75.659-42.225,18.915-21.138,9.409c-7.06,3.109-14.139,6.182-21.286,9.106s-14.365,5.7-21.763,8a114.069,114.069,0,0,1-11.262,2.929c-1.9.395-3.832.686-5.767.933a53.536,53.536,0,0,1-5.854.354c-.98.028-1.961-.044-2.942-.081-.49-.033-.98-.09-1.469-.135l-.734-.072-.73-.112a32.061,32.061,0,0,1-5.752-1.359,33.673,33.673,0,0,1-10.316-5.685,52.613,52.613,0,0,1-8.225-8.363,99.32,99.32,0,0,1-6.7-9.558c-4.1-6.6-7.692-13.475-11.109-20.417s-6.657-13.966-9.858-21-6.334-14.1-9.474-21.157l-9.454-21.159-37.828-84.632L-144.6,16.213l1.963-.881,75.41,169.376L-29.527,269.4l9.423,21.173q4.7,10.594,9.438,21.159C-7.478,318.76-4.26,325.777-.86,332.7s6.959,13.76,11,20.29a97.825,97.825,0,0,0,6.572,9.412,51.04,51.04,0,0,0,7.962,8.125,32.107,32.107,0,0,0,9.832,5.44,30.481,30.481,0,0,0,5.482,1.3l.7.108.7.07c.47.043.938.1,1.409.132.945.035,1.887.108,2.835.081a51.822,51.822,0,0,0,5.681-.335c1.888-.238,3.774-.52,5.646-.9a112.647,112.647,0,0,0,11.114-2.875c7.331-2.268,14.52-5.033,21.652-7.929s14.2-5.963,21.263-9.059l21.144-9.375,42.252-18.853,169.009-75.413L512.4,177.507c7.047-3.133,14.1-6.263,21.18-9.315s14.2-6.037,21.413-8.791a171.6,171.6,0,0,1,22.072-7.017,67.346,67.346,0,0,1,11.479-1.72,44.065,44.065,0,0,1,5.821.039,37.806,37.806,0,0,1,5.759.912,34.856,34.856,0,0,1,5.51,1.926,36.848,36.848,0,0,1,5.066,2.9,46.675,46.675,0,0,1,8.556,7.872A113.894,113.894,0,0,1,632.1,183.618c3.73,6.777,7.117,13.729,10.412,20.719s6.462,14.039,9.616,21.092Z" transform="translate(144.605 -15.332)"/></g></g><g transform="translate(0.693 58.684)"><g transform="translate(0 0)"><path class="c" d="M807.892,515.211,655.155,173.917c-3.254-7.075-6.567-14.124-10.1-21.058A180.55,180.55,0,0,0,633.364,132.7a74,74,0,0,0-7.276-9.054,39.888,39.888,0,0,0-9.056-7.146,29.5,29.5,0,0,0-5.264-2.343,30.708,30.708,0,0,0-5.607-1.332l-.713-.109-.719-.071c-.48-.043-.958-.1-1.438-.132-.963-.035-1.925-.105-2.89-.077a51.925,51.925,0,0,0-5.777.357,111.321,111.321,0,0,0-22.49,5.7c-7.333,2.547-14.536,5.472-21.7,8.483-14.313,6.061-28.477,12.487-42.677,18.829L337.442,222.1,167.126,298.391l-42.595,19.043c-7.112,3.15-14.239,6.27-21.424,9.267s-14.43,5.87-21.833,8.345c-7.4,2.446-15,4.558-22.866,5.189a40.862,40.862,0,0,1-11.815-.738,30.706,30.706,0,0,1-5.676-1.828,31.865,31.865,0,0,1-5.24-2.843l-.624-.407-.6-.44c-.4-.3-.8-.582-1.195-.888-.763-.632-1.547-1.241-2.266-1.921a53.188,53.188,0,0,1-4.16-4.215,85.661,85.661,0,0,1-7.078-9.417A205.994,205.994,0,0,1,8.267,297.1c-3.491-6.981-6.788-14.049-10.023-21.141s-6.408-14.209-9.575-21.327L-30.4,211.958l-38.147-85.34L-144.838-44.064l1.963-.881,76.049,170.794,38.024,85.4,19.005,42.7c3.156,7.121,6.317,14.239,9.538,21.326s6.5,14.145,9.968,21.1a204.508,204.508,0,0,0,11.363,20.293A84.075,84.075,0,0,0,28,325.916a51.519,51.519,0,0,0,4.03,4.1c.694.66,1.448,1.245,2.181,1.855.375.295.764.568,1.146.853l.575.424.6.39a30.3,30.3,0,0,0,4.993,2.719,29.2,29.2,0,0,0,5.4,1.748,39.351,39.351,0,0,0,11.372.721c7.654-.6,15.168-2.665,22.51-5.084,7.349-2.445,14.571-5.3,21.744-8.276s14.3-6.086,21.409-9.224l42.618-18.979L337,221.113l170.425-76.046c14.209-6.321,28.382-12.727,42.719-18.774,7.175-3,14.394-5.923,21.755-8.468a111.928,111.928,0,0,1,22.643-5.7,52.659,52.659,0,0,1,5.853-.354c.979-.026,1.958.045,2.936.083.488.034.976.091,1.464.136l.731.073.727.112a31.365,31.365,0,0,1,5.718,1.367,30.2,30.2,0,0,1,5.37,2.4,40.5,40.5,0,0,1,9.191,7.273,74.513,74.513,0,0,1,7.326,9.141,181.22,181.22,0,0,1,11.7,20.248c3.529,6.952,6.834,14.011,10.079,21.094Z" transform="translate(144.838 44.945)"/></g></g><g transform="translate(0.792 26.695)"><g transform="translate(0)"><path class="c" d="M807.79,455.247,731.484,284.665l-38.153-85.292-19.066-42.65c-3.17-7.111-6.348-14.219-9.594-21.294s-6.566-14.117-10.1-21.048a180.168,180.168,0,0,0-11.7-20.15,73.37,73.37,0,0,0-7.283-9.044,39.746,39.746,0,0,0-9.065-7.135,30.974,30.974,0,0,0-10.878-3.657l-.714-.108-.719-.069c-.479-.042-.957-.1-1.438-.129-.963-.037-1.925-.1-2.89-.075a51.9,51.9,0,0,0-5.776.364,111.452,111.452,0,0,0-22.482,5.71c-7.33,2.548-14.53,5.471-21.69,8.481s-14.267,6.154-21.371,9.307l-42.566,19.046L325.769,193.178,155.532,269.436l-21.3,9.5c-7.108,3.149-14.231,6.27-21.412,9.267s-14.421,5.872-21.816,8.356c-7.391,2.455-14.979,4.576-22.839,5.236a47.157,47.157,0,0,1-5.915.091c-.494-.016-.988-.043-1.481-.1L59.3,301.64c-.98-.154-1.965-.279-2.932-.512-.977-.183-1.927-.482-2.886-.746-.939-.329-1.889-.63-2.8-1.038-.929-.361-1.807-.833-2.7-1.271-.862-.5-1.738-.968-2.557-1.531-.846-.523-1.628-1.134-2.43-1.717l-1.152-.938-.574-.471-.549-.5-1.1-1-1.05-1.044c-.715-.683-1.35-1.437-2.029-2.152a83.923,83.923,0,0,1-7.1-9.39A202.706,202.706,0,0,1,17.935,258.92c-3.5-6.975-6.793-14.039-10.028-21.127L-144.653-103.4l1.962-.881L9.374,237.121c3.22,7.083,6.5,14.137,9.972,21.088a201.165,201.165,0,0,0,11.384,20.27,82.483,82.483,0,0,0,6.953,9.226c.659.7,1.278,1.433,1.97,2.095l1.017,1.015,1.059.966.53.483.553.454,1.108.905c.77.56,1.52,1.15,2.329,1.65.783.542,1.62.991,2.442,1.467.851.418,1.687.872,2.571,1.215.865.392,1.77.677,2.663.994.914.251,1.819.54,2.753.715.922.224,1.867.343,2.8.494l1.42.144c.473.056.948.083,1.425.1a45.658,45.658,0,0,0,5.727-.08c7.652-.63,15.16-2.7,22.5-5.133,7.343-2.455,14.561-5.313,21.73-8.288s14.289-6.086,21.4-9.224l21.3-9.47,170.347-76.011,170.347-76.011,42.6-18.985c7.109-3.143,14.228-6.268,21.4-9.281S574.057,82,581.414,79.45a112.105,112.105,0,0,1,22.627-5.71,52.433,52.433,0,0,1,5.848-.359c.978-.026,1.955.04,2.933.08.488.029.975.09,1.462.134l.731.072.727.111a31.594,31.594,0,0,1,11.083,3.744,40.339,40.339,0,0,1,9.192,7.254,73.782,73.782,0,0,1,7.33,9.128,180.575,180.575,0,0,1,11.706,20.231c3.527,6.948,6.833,14,10.077,21.083s6.405,14.2,9.566,21.313L693.7,199.209l38.03,85.346Z" transform="translate(144.653 104.282)"/></g></g><g transform="translate(5.384 4.762)"><path class="c" d="M812.254,405.5,736.46,236.052l-37.9-84.726-9.469-21.184c-3.147-7.065-6.293-14.131-9.5-21.168s-6.465-14.05-9.9-20.973a219.747,219.747,0,0,0-11.212-20.265,87.59,87.59,0,0,0-6.79-9.346,47.375,47.375,0,0,0-8.316-7.933c-.759-.588-1.582-1.078-2.38-1.607-.835-.468-1.65-.971-2.52-1.371-.847-.446-1.742-.786-2.622-1.161-.905-.307-1.8-.651-2.727-.883-.915-.281-1.857-.451-2.79-.658-.946-.139-1.887-.322-2.843-.39a40.766,40.766,0,0,0-5.738-.166c-7.681.329-15.2,2.3-22.53,4.63-7.333,2.37-14.52,5.187-21.653,8.124-14.256,5.91-28.32,12.291-42.42,18.584L492.873,94.5,323.767,170.25,154.655,245.992c-7.053,3.144-14.114,6.274-21.211,9.328s-14.236,6.023-21.484,8.736a152.5,152.5,0,0,1-22.247,6.74,59.937,59.937,0,0,1-11.622,1.327,36.024,36.024,0,0,1-11.637-1.694A33.749,33.749,0,0,1,56.108,264.8a52.576,52.576,0,0,1-8.253-8.343A130.513,130.513,0,0,1,35.317,236.81c-1.844-3.413-3.6-6.869-5.31-10.344s-3.381-6.97-5.019-10.478c-3.28-7.013-6.458-14.069-9.617-21.131L-136.136-144.083l1.963-.882L16.844,194.2c3.147,7.063,6.311,14.117,9.575,21.121q2.444,5.255,4.989,10.455c1.7,3.465,3.442,6.909,5.27,10.3A128.984,128.984,0,0,0,49.031,255.5a51.1,51.1,0,0,0,8,8.117,32.264,32.264,0,0,0,9.885,5.4,34.553,34.553,0,0,0,11.167,1.637,58.509,58.509,0,0,0,11.346-1.281,151.254,151.254,0,0,0,22.04-6.647c7.217-2.689,14.34-5.649,21.434-8.68s14.152-6.157,21.207-9.289l169.219-75.5L492.545,93.759l42.3-18.877c14.109-6.272,28.183-12.633,42.465-18.529,7.146-2.931,14.351-5.743,21.714-8.111,7.357-2.332,14.925-4.3,22.7-4.627a41.409,41.409,0,0,1,5.821.178c.97.07,1.928.258,2.89.4.95.211,1.909.385,2.841.673.946.238,1.856.589,2.777.9.9.382,1.807.73,2.67,1.186.885.409,1.715.922,2.563,1.4.811.538,1.648,1.039,2.417,1.636a47.953,47.953,0,0,1,8.4,8.038,88.077,88.077,0,0,1,6.819,9.413,220.264,220.264,0,0,1,11.211,20.331c3.432,6.936,6.682,13.959,9.88,21s6.333,14.115,9.471,21.185l9.439,21.2,37.774,84.781Z" transform="translate(136.136 144.965)"/></g><g transform="translate(19.245 3.578)"><path class="c" d="M823.929,371.9,749.894,206.372l-37.018-82.764c-6.166-13.795-12.244-27.632-18.746-41.266-3.27-6.806-6.643-13.567-10.386-20.118A98.167,98.167,0,0,0,670.758,43.8c-.631-.7-1.321-1.334-1.98-2l-1.043-.945-.521-.472-.543-.445a36.4,36.4,0,0,0-4.561-3.268,33.659,33.659,0,0,0-5.034-2.453,34.515,34.515,0,0,0-5.392-1.5,41.553,41.553,0,0,0-11.187-.4,75.1,75.1,0,0,0-11.087,1.923,183.011,183.011,0,0,0-21.446,7.022c-7.027,2.719-13.974,5.649-20.892,8.646-13.83,6.009-27.573,12.23-41.344,18.384l-41.3,18.5-165.188,74-165.2,73.986c-6.892,3.065-13.789,6.123-20.73,9.09s-13.92,5.853-21.01,8.48a147.216,147.216,0,0,1-21.766,6.483,58.825,58.825,0,0,1-11.362,1.232,35.949,35.949,0,0,1-11.367-1.676A32.661,32.661,0,0,1,82.5,256.1a38.273,38.273,0,0,1-4.832-3.16,52.792,52.792,0,0,1-8.139-8.08,125.9,125.9,0,0,1-12.375-19.114C53.54,219.084,50.221,212.279,47,205.438s-6.332-13.734-9.423-20.631l-148-331.088,1.963-.881L39.045,184.146c3.079,6.9,6.184,13.781,9.38,20.618S54.931,218.38,58.513,225A124.509,124.509,0,0,0,70.7,243.9a51.317,51.317,0,0,0,7.885,7.856,36.779,36.779,0,0,0,4.625,3.035,31.144,31.144,0,0,0,5.063,2.184,34.458,34.458,0,0,0,10.907,1.619,57.363,57.363,0,0,0,11.087-1.188,145.832,145.832,0,0,0,21.556-6.389c7.057-2.6,14.024-5.472,20.957-8.423s13.83-6,20.724-9.051l165.3-73.739L504.1,86.048,545.428,67.61c13.78-6.133,27.531-12.333,41.378-18.326,6.927-2.988,13.885-5.911,20.929-8.624a183.463,183.463,0,0,1,21.532-7.014,75.628,75.628,0,0,1,11.178-1.921,42.149,42.149,0,0,1,11.343.424,35.052,35.052,0,0,1,5.487,1.538,34.239,34.239,0,0,1,5.119,2.5,36.927,36.927,0,0,1,4.625,3.323l.55.452.527.479,1.053.958c.666.676,1.362,1.322,2,2.025a98.662,98.662,0,0,1,13.032,18.544c3.743,6.574,7.11,13.349,10.372,20.165,6.488,13.654,12.545,27.5,18.691,41.305l36.894,82.819Z" transform="translate(110.426 147.162)"/></g><g transform="translate(33.818 3.99)"><g transform="translate(0 0)"><path class="c" d="M836.335,339.931l-72.2-161.439L728.046,97.767c-3.012-6.725-6.038-13.443-9.156-20.117s-6.316-13.311-9.755-19.82a147.778,147.778,0,0,0-11.511-18.8,60.564,60.564,0,0,0-7.256-8.244c-.677-.616-1.349-1.237-2.068-1.8-.694-.6-1.441-1.123-2.177-1.664a32.8,32.8,0,0,0-4.712-2.771l-.614-.3-.631-.264c-.422-.171-.837-.361-1.265-.517-.861-.3-1.716-.615-2.6-.836-.872-.268-1.77-.431-2.661-.627-.447-.084-.9-.142-1.35-.215s-.9-.138-1.356-.173l-1.362-.132-1.368-.06c-.911-.061-1.826-.01-2.739-.018-1.826.071-3.651.2-5.464.452a111.749,111.749,0,0,0-21.279,5.441c-3.473,1.191-6.913,2.482-10.335,3.822s-6.825,2.726-10.215,4.146c-6.781,2.838-13.518,5.788-20.242,8.768L517.367,80.1l-161.1,72.174L195.151,224.43c-6.723,2.988-13.45,5.969-20.221,8.858s-13.578,5.7-20.489,8.273a151.758,151.758,0,0,1-21.2,6.4,64.057,64.057,0,0,1-11.056,1.385,37.609,37.609,0,0,1-11.131-1.273c-.913-.229-1.8-.561-2.686-.867-.44-.166-.87-.359-1.306-.536l-.651-.273-.633-.312a33.635,33.635,0,0,1-4.853-2.863,46.988,46.988,0,0,1-8.227-7.591,111.424,111.424,0,0,1-12.426-18.416c-3.607-6.457-6.887-13.075-10.061-19.735s-6.228-13.372-9.251-20.1l-144.348-322.9,1.963-.881L62.426,176.724c3.01,6.722,6.055,13.428,9.206,20.077s6.414,13.245,9.984,19.658a109.979,109.979,0,0,0,12.217,18.177,45.518,45.518,0,0,0,7.95,7.363,32.185,32.185,0,0,0,4.636,2.745l.6.3.621.26c.415.17.824.355,1.244.514.849.292,1.688.611,2.56.83a36.147,36.147,0,0,0,10.7,1.236,62.608,62.608,0,0,0,10.8-1.339,150.372,150.372,0,0,0,21-6.311c6.88-2.547,13.677-5.339,20.439-8.216s13.491-5.842,20.215-8.819l161.219-71.91L517.038,79.36l80.621-35.936c6.73-2.97,13.474-5.911,20.267-8.742,3.4-1.417,6.8-2.8,10.236-4.136s6.878-2.625,10.364-3.815a112.326,112.326,0,0,1,21.4-5.435c1.83-.249,3.675-.38,5.522-.447.925.008,1.85-.042,2.774.022l1.386.063,1.382.135c.462.036.92.1,1.377.177s.917.134,1.372.22c.9.2,1.817.368,2.7.642.9.226,1.769.551,2.645.854.436.16.858.353,1.287.528l.642.269.624.307a33.271,33.271,0,0,1,4.784,2.823c.746.55,1.5,1.086,2.2,1.691.728.574,1.407,1.2,2.091,1.826a61.013,61.013,0,0,1,7.3,8.324,148.154,148.154,0,0,1,11.523,18.877c3.434,6.526,6.628,13.173,9.735,19.856s6.126,13.407,9.128,20.137l35.965,80.78Z" transform="translate(83.393 146.397)"/></g></g><g transform="translate(48.199 3.973)"><g transform="translate(0)"><path class="c" d="M848.71,307.892,778.3,150.451l-17.6-39.36c-5.89-13.109-11.664-26.273-17.653-39.334-3.006-6.525-6.05-13.033-9.288-19.443a209.133,209.133,0,0,0-10.512-18.778c-3.884-6-8.3-11.775-13.911-16.214a35.619,35.619,0,0,0-4.446-2.952l-.58-.331-.6-.295-1.2-.586c-.824-.334-1.63-.713-2.479-.98a33.919,33.919,0,0,0-10.467-1.844,54.357,54.357,0,0,0-10.647.881,98.174,98.174,0,0,0-10.434,2.459c-6.877,1.987-13.6,4.488-20.264,7.124-13.313,5.32-26.4,11.207-39.5,17.043l-78.557,35.19L373.051,143.42,215.93,213.79c-6.556,2.915-13.12,5.814-19.725,8.629s-13.246,5.551-19.985,8.061a155,155,0,0,1-20.661,6.3,66.237,66.237,0,0,1-10.764,1.465,39.122,39.122,0,0,1-10.884-.935,32.255,32.255,0,0,1-10.053-4.353,42.877,42.877,0,0,1-8.281-7.126,99.308,99.308,0,0,1-12.458-17.736c-3.6-6.256-6.836-12.693-9.966-19.172S87.031,175.9,84.066,169.35l-140.783-314.9,1.962-.881L85.535,168.684c2.952,6.547,5.93,13.083,9.039,19.549s6.326,12.879,9.883,19.087a97.866,97.866,0,0,0,12.23,17.481,41.413,41.413,0,0,0,7.983,6.9,30.753,30.753,0,0,0,9.587,4.171,37.661,37.661,0,0,0,10.475.912,64.815,64.815,0,0,0,10.527-1.418,153.651,153.651,0,0,0,20.473-6.209c6.709-2.486,13.34-5.2,19.935-8s13.161-5.686,19.719-8.59l157.227-70.123L529.834,72.292l78.612-35.067C621.56,31.409,634.658,25.54,648,20.234c6.677-2.63,13.419-5.126,20.329-7.11a98.822,98.822,0,0,1,10.5-2.457,54.912,54.912,0,0,1,10.755-.872,34.469,34.469,0,0,1,10.625,1.891c.863.273,1.683.66,2.52,1l1.217.6.607.3.588.336a36.2,36.2,0,0,1,4.507,3c5.676,4.505,10.106,10.324,14,16.356a209.484,209.484,0,0,1,10.507,18.836c3.232,6.423,6.267,12.94,9.265,19.473,5.971,13.076,11.723,26.247,17.593,39.366l17.541,39.387Z" transform="translate(56.717 146.43)"/></g></g><g transform="translate(62.835 4.524)"><g transform="translate(0 0)"><path class="c" d="M860.9,275.445l-68.532-153.26L775.246,83.866c-5.7-12.773-11.38-25.564-17.516-38.13-3.083-6.274-6.287-12.493-9.858-18.5a86.61,86.61,0,0,0-12.4-16.781,38.925,38.925,0,0,0-8.159-6.423A31.5,31.5,0,0,0,722.627,1.8c-.821-.277-1.629-.59-2.47-.8-.419-.11-.831-.246-1.254-.335l-1.27-.272a40.174,40.174,0,0,0-10.357-.561,67.043,67.043,0,0,0-10.3,1.559,158.2,158.2,0,0,0-19.956,6.177c-6.534,2.442-12.99,5.1-19.409,7.835-12.837,5.485-25.562,11.241-38.312,16.939L542.829,66.6,389.894,135.126l-152.946,68.5c-6.382,2.836-12.776,5.651-19.205,8.39s-12.9,5.394-19.456,7.842a158.646,158.646,0,0,1-20.093,6.194,67.2,67.2,0,0,1-10.457,1.556A40.548,40.548,0,0,1,157.126,227l-1.308-.281c-.433-.107-.861-.236-1.292-.353-.868-.215-1.7-.554-2.546-.834l-1.238-.514-.618-.259-.6-.3-1.2-.594-1.163-.664-.58-.334-.561-.365-1.121-.731c-.709-.537-1.456-1.03-2.134-1.606l-1.032-.846c-.342-.284-.661-.592-.994-.887-.67-.585-1.294-1.215-1.921-1.842a67.382,67.382,0,0,1-6.78-8.14c-2.06-2.862-3.948-5.834-5.74-8.855-3.585-6.045-6.8-12.286-9.881-18.575s-6.02-12.649-8.922-19.018L-29.57-144.526l1.963-.881L108.959,161.331c2.889,6.366,5.813,12.714,8.872,18.991s6.25,12.487,9.792,18.48c1.77,3,3.631,5.935,5.653,8.752a65.877,65.877,0,0,0,6.614,7.969c.608.61,1.213,1.222,1.859,1.788.32.286.629.585.959.859l.993.817c.653.557,1.368,1.029,2.048,1.548l1.073.7.536.351.554.32,1.11.636,1.146.568.573.284.589.247,1.178.493c.809.267,1.6.594,2.427.8.411.112.819.236,1.232.339l1.251.27a39.1,39.1,0,0,0,10.229.6,65.892,65.892,0,0,0,10.236-1.508,157.436,157.436,0,0,0,19.915-6.106c6.529-2.425,12.987-5.061,19.408-7.787s12.815-5.526,19.2-8.35l153.052-68.254L542.5,65.866l76.522-34.137c12.759-5.677,25.493-11.413,38.349-16.882,6.429-2.732,12.9-5.378,19.447-7.814A158.666,158.666,0,0,1,696.857.866,67.553,67.553,0,0,1,707.241-.688,40.64,40.64,0,0,1,717.73-.1l1.289.278c.43.091.849.229,1.274.342.854.215,1.675.534,2.508.817a31.978,31.978,0,0,1,4.754,2.277,39.414,39.414,0,0,1,8.25,6.514,87.058,87.058,0,0,1,12.443,16.89c3.57,6.026,6.768,12.258,9.844,18.543,6.122,12.587,11.777,25.388,17.461,38.171l17.064,38.346Z" transform="translate(29.57 145.407)"/></g></g><g transform="translate(77.214 4.503)"><path class="c" d="M873.206,243.238,806.477,94,789.786,56.69c-2.811-6.2-5.648-12.4-8.6-18.531S775.179,25.936,771.851,20A114.264,114.264,0,0,0,760.565,3.055a51.028,51.028,0,0,0-7.2-7.152,33.438,33.438,0,0,0-8.719-5.082,33.62,33.62,0,0,0-9.862-2.1,50.583,50.583,0,0,0-10.114.491A112.737,112.737,0,0,0,705-5.74c-6.425,2.2-12.75,4.684-19.03,7.28S673.453,6.848,667.23,9.584c-12.439,5.489-24.837,11.078-37.25,16.632L555.519,59.58,406.6,126.308l-148.934,66.7c-12.44,5.5-24.889,11.008-37.657,15.786a159.944,159.944,0,0,1-19.555,6.064,72.319,72.319,0,0,1-10.162,1.623,42.48,42.48,0,0,1-10.342-.363,32.5,32.5,0,0,1-9.848-3.312,39.77,39.77,0,0,1-8.371-6.133A81.617,81.617,0,0,1,149.162,190.4c-3.566-5.846-6.753-11.894-9.8-18s-5.931-12.287-8.77-18.484L-2.9-144.566l1.963-.881L132.06,153.237c2.824,6.193,5.706,12.357,8.717,18.452s6.184,12.106,9.7,17.9a80.167,80.167,0,0,0,12.288,15.992,38.247,38.247,0,0,0,8.032,5.909,31,31,0,0,0,9.393,3.174,41.037,41.037,0,0,0,9.983.364,70.971,70.971,0,0,0,9.957-1.575,158.57,158.57,0,0,0,19.384-5.979c12.714-4.733,25.161-10.218,37.6-15.691L406.16,125.323,555.191,58.841,629.707,25.6c12.422-5.533,24.828-11.1,37.281-16.572,6.229-2.727,12.47-5.434,18.762-8.019s12.63-5.069,19.076-7.26a113.173,113.173,0,0,1,19.78-5.04,51.09,51.09,0,0,1,10.216-.478,34.1,34.1,0,0,1,10,2.149,33.909,33.909,0,0,1,8.831,5.166A51.455,51.455,0,0,1,760.9,2.774,114.638,114.638,0,0,1,772.2,19.8c3.325,5.952,6.371,12.052,9.316,18.2s5.772,12.343,8.574,18.553l16.63,37.335Z" transform="translate(2.898 145.447)"/></g><g transform="translate(91.533 4.348)"><path class="c" d="M885.737,211.544,820.77,66.223c-5.4-12.114-10.766-24.248-16.438-36.236-2.841-5.991-5.762-11.945-8.907-17.778a141.5,141.5,0,0,0-10.438-16.88,64.4,64.4,0,0,0-6.436-7.521,38.138,38.138,0,0,0-7.779-6.048l-1.072-.61-1.106-.545c-.727-.386-1.505-.658-2.257-.988a31.7,31.7,0,0,0-4.723-1.391,36.148,36.148,0,0,0-4.878-.693c-.822-.031-1.643-.089-2.465-.09-.823.016-1.646-.013-2.468.049a82.257,82.257,0,0,0-19.389,3.732c-6.326,1.914-12.531,4.22-18.682,6.652-12.289,4.907-24.383,10.3-36.477,15.69L641,19.8,568.5,52.289l-145,64.976L278.477,182.213c-12.115,5.35-24.242,10.7-36.673,15.358a162.437,162.437,0,0,1-19.024,5.956,74.362,74.362,0,0,1-9.874,1.685,44.337,44.337,0,0,1-10.069-.091,32.607,32.607,0,0,1-9.71-2.837,36.132,36.132,0,0,1-8.407-5.614,72.934,72.934,0,0,1-12.654-15.532c-1.8-2.809-3.471-5.691-5.085-8.6s-3.16-5.855-4.663-8.819c-3.006-5.929-5.851-11.93-8.634-17.956-5.566-12.053-10.9-24.2-16.323-36.306l-16.242-36.33L88.631.465,23.663-144.853l1.963-.881L90.35-.3l32.362,72.715,16.181,36.357c5.4,12.115,10.716,24.27,16.252,36.312,2.768,6.021,5.6,12.011,8.578,17.918,1.491,2.953,3.018,5.887,4.621,8.776s3.25,5.751,5.022,8.528a71.449,71.449,0,0,0,12.348,15.226,34.633,34.633,0,0,0,8.049,5.4,31.1,31.1,0,0,0,9.266,2.723,42.887,42.887,0,0,0,9.737.1,72.964,72.964,0,0,0,9.684-1.636,161.174,161.174,0,0,0,18.862-5.872c12.378-4.612,24.5-9.937,36.619-15.263l145.123-64.7L568.17,51.551l72.556-32.365L677.008,3.011c12.105-5.367,24.212-10.744,36.526-15.637,6.164-2.425,12.384-4.725,18.735-6.634a82.724,82.724,0,0,1,19.513-3.719c.829-.061,1.662-.03,2.493-.045.831,0,1.663.063,2.493.1a36.611,36.611,0,0,1,4.94.71A32.119,32.119,0,0,1,766.5-20.8c.763.335,1.551.614,2.288,1.006l1.12.554,1.085.62a38.576,38.576,0,0,1,7.855,6.127,64.771,64.771,0,0,1,6.466,7.58,141.827,141.827,0,0,1,10.439,16.945c3.14,5.847,6.053,11.811,8.885,17.809,5.655,12,11,24.147,16.38,36.271Z" transform="translate(-23.663 145.734)"/></g><g transform="translate(105.853 4.194)"><path class="c" d="M897.857,178.921,834.707,37.639c-5.309-11.749-10.648-23.5-16.652-34.9a159.62,159.62,0,0,0-9.9-16.572c-3.681-5.254-7.888-10.244-13.122-13.967a32,32,0,0,0-8.526-4.317,33.893,33.893,0,0,0-9.422-1.607A65.525,65.525,0,0,0,758.1-31.1a186.8,186.8,0,0,0-18.289,6.074c-6.01,2.29-11.948,4.767-17.867,7.291-11.829,5.067-23.563,10.363-35.315,15.616L651.385,13.672,580.9,45.258,439.93,108.43,298.943,171.57c-11.779,5.2-23.578,10.382-35.668,14.9-3.027,1.115-6.074,2.182-9.149,3.175-3.08.977-6.191,1.873-9.342,2.626-6.287,1.491-12.826,2.457-19.374,1.768a32.521,32.521,0,0,1-9.521-2.459,34.2,34.2,0,0,1-8.37-5.161,65.877,65.877,0,0,1-12.678-14.8,184.63,184.63,0,0,1-9.676-16.83c-2.975-5.739-5.756-11.568-8.49-17.414-5.453-11.7-10.655-23.5-15.914-35.28l-15.79-35.319L113.387-3.863,50.225-145.139l1.963-.881L115.106-4.631l31.459,70.694,15.729,35.347c5.239,11.784,10.419,23.594,15.841,35.28,2.719,5.839,5.482,11.656,8.432,17.371a182.947,182.947,0,0,0,9.563,16.7,64.4,64.4,0,0,0,12.347,14.479,32.711,32.711,0,0,0,8,4.956,31.025,31.025,0,0,0,9.092,2.363c6.287.675,12.681-.243,18.882-1.7,3.108-.736,6.186-1.618,9.242-2.581,3.051-.98,6.081-2.034,9.094-3.139,12.038-4.471,23.834-9.628,35.615-14.8l141.091-62.891L580.572,44.519l70.54-31.463,35.27-15.731c11.761-5.234,23.5-10.509,35.35-15.559,5.926-2.515,11.875-4.985,17.9-7.267a187.226,187.226,0,0,1,18.349-6.058,65.973,65.973,0,0,1,19.121-2.6,34.313,34.313,0,0,1,9.536,1.644,32.431,32.431,0,0,1,8.629,4.387c5.286,3.775,9.507,8.806,13.193,14.085a159.872,159.872,0,0,1,9.9,16.627c5.991,11.43,11.312,23.188,16.6,34.948Z" transform="translate(-50.225 146.02)"/></g><g transform="translate(120.026 3.713)"><g transform="translate(0 0)"><path class="c" d="M910.135,146.649,879.441,77.966,864.093,43.625c-5.105-11.451-10.186-22.915-15.508-34.265-2.662-5.674-5.4-11.31-8.3-16.865-1.456-2.774-2.942-5.531-4.516-8.238s-3.191-5.388-4.944-7.98A63.575,63.575,0,0,0,818.557-37.8a32.029,32.029,0,0,0-16.937-7.191,55.932,55.932,0,0,0-18.539,1.559c-3.042.7-6.052,1.539-9.031,2.479s-5.939,1.944-8.872,3.024c-5.874,2.139-11.669,4.5-17.437,6.916s-11.5,4.926-17.224,7.454L456.393,99.248,319.318,160.633c-11.455,5.049-22.935,10.069-34.694,14.449q-4.414,1.63-8.9,3.085c-3,.948-6.018,1.824-9.079,2.567a59.1,59.1,0,0,1-18.821,1.921,34,34,0,0,1-9.327-2.1,34.691,34.691,0,0,1-8.322-4.723,47.626,47.626,0,0,1-6.917-6.554,78.088,78.088,0,0,1-5.784-7.517,168.029,168.029,0,0,1-9.616-16.251c-2.926-5.564-5.677-11.21-8.357-16.885-5.344-11.358-10.424-22.826-15.527-34.279L168.63,60l-30.7-68.677L76.516-146.03l1.963-.881L139.644-9.444l30.582,68.733,15.289,34.368c5.082,11.461,10.14,22.932,15.451,34.274,2.663,5.667,5.4,11.3,8.295,16.836a166.575,166.575,0,0,0,9.493,16.113,76.667,76.667,0,0,0,5.658,7.382,46.076,46.076,0,0,0,6.685,6.361,33.16,33.16,0,0,0,7.945,4.531,32.488,32.488,0,0,0,8.914,2.025,57.683,57.683,0,0,0,18.356-1.852c3.02-.727,6.012-1.588,8.983-2.523q4.448-1.432,8.842-3.049c11.707-4.336,23.184-9.329,34.639-14.354L455.955,98.263,730.3-24.05c5.73-2.518,11.471-5.012,17.247-7.427s11.582-4.761,17.47-6.893q4.41-1.616,8.9-3.016c2.989-.938,6.011-1.777,9.068-2.472a56.332,56.332,0,0,1,18.683-1.533,32.423,32.423,0,0,1,17.122,7.3A63.92,63.92,0,0,1,831.1-23.911c1.754,2.6,3.375,5.291,4.942,8.008s3.055,5.478,4.507,8.258c2.892,5.565,5.626,11.21,8.279,16.891,5.3,11.363,10.363,22.837,15.449,34.3l15.286,34.369Z" transform="translate(-76.516 146.911)"/></g></g><g transform="translate(134.347 3.561)"><path class="c" d="M922.393,114.328,892.6,47.645,877.7,14.306c-5.015-11.089-10.065-22.171-15.687-32.962-1.41-2.694-2.856-5.371-4.378-8s-3.092-5.235-4.776-7.764a66.152,66.152,0,0,0-11.717-13.852,32.413,32.413,0,0,0-16.163-7.68,50.365,50.365,0,0,0-18.027.853,134.235,134.235,0,0,0-17.467,5.037c-5.725,2.012-11.368,4.261-16.982,6.575-11.22,4.65-22.309,9.619-33.4,14.57L472.98,90.348,339.9,149.939c-11.125,4.894-22.276,9.756-33.7,14q-4.285,1.581-8.636,3c-2.907.923-5.839,1.78-8.806,2.517a62.406,62.406,0,0,1-18.25,2.094,33.762,33.762,0,0,1-9.113-1.752,32.756,32.756,0,0,1-8.274-4.231,55.991,55.991,0,0,1-12.756-13.28,149.237,149.237,0,0,1-9.572-15.644c-2.9-5.375-5.615-10.836-8.238-16.337-5.242-11-10.194-22.13-15.153-33.248l-14.9-33.342L162.7-12.962l-59.619-133.35,1.962-.881L164.417-13.73,194.1,53,208.94,86.37c4.938,11.124,9.866,22.252,15.074,33.236,2.6,5.491,5.3,10.934,8.171,16.279a147.835,147.835,0,0,0,9.439,15.495,54.514,54.514,0,0,0,12.368,12.942,31.518,31.518,0,0,0,16.609,5.745,61.011,61.011,0,0,0,17.817-2.022c2.928-.721,5.831-1.564,8.715-2.474q4.318-1.391,8.585-2.96c11.369-4.2,22.516-9.036,33.641-13.906L472.543,89.362,738.88-29.411c11.105-4.931,22.205-9.88,33.444-14.514,5.623-2.305,11.276-4.546,17.017-6.552a134.64,134.64,0,0,1,17.531-5.02,50.74,50.74,0,0,1,18.167-.822c.758.1,1.5.293,2.246.445s1.473.4,2.21.6c.718.26,1.451.482,2.156.774s1.419.568,2.095.927a35.793,35.793,0,0,1,7.614,5.046,66.444,66.444,0,0,1,11.75,13.941c1.685,2.538,3.265,5.143,4.772,7.788s2.962,5.321,4.369,8.02c5.607,10.811,10.637,21.9,15.633,33l14.84,33.368Z" transform="translate(-103.079 147.193)"/></g><g transform="translate(149.246 4.707)"><path class="c" d="M935.03,82.847,906.188,18.258c-4.806-10.765-9.6-21.537-14.642-32.191-2.526-5.324-5.117-10.618-7.864-15.83A172.067,172.067,0,0,0,874.74-44.99a65.687,65.687,0,0,0-11.4-13.376,35.347,35.347,0,0,0-7.3-4.858,31.216,31.216,0,0,0-8.31-2.735,48.845,48.845,0,0,0-17.475.539,127.056,127.056,0,0,0-16.966,4.7c-11.113,3.842-21.938,8.479-32.727,13.166C769.779-42.837,759.049-38,748.308-33.2L490.577,82.327l-64.433,28.881-32.217,14.44c-10.74,4.811-21.472,9.638-32.241,14.394-10.775,4.74-21.579,9.439-32.626,13.579a174.958,174.958,0,0,1-16.859,5.439,67.389,67.389,0,0,1-17.613,2.49,35.97,35.97,0,0,1-8.9-1.187,32.472,32.472,0,0,1-8.29-3.517,39.359,39.359,0,0,1-7.094-5.511,60.672,60.672,0,0,1-5.933-6.688,125.592,125.592,0,0,1-9.651-14.928c-2.889-5.163-5.579-10.426-8.164-15.734-5.16-10.622-9.986-21.386-14.8-32.15L217.33,49.54,188.459-15.036l-57.743-129.15,1.963-.881L190.177-15.8l28.749,64.631,14.361,32.32c4.792,10.768,9.594,21.531,14.717,32.128,2.566,5.3,5.234,10.537,8.091,15.666a124.226,124.226,0,0,0,9.5,14.756,47.011,47.011,0,0,0,12.583,11.846,30.969,30.969,0,0,0,7.9,3.369,34.5,34.5,0,0,0,8.539,1.154,65.985,65.985,0,0,0,17.231-2.411,173.614,173.614,0,0,0,16.728-5.363c11-4.1,21.8-8.77,32.576-13.486,10.77-4.733,21.512-9.54,32.261-14.33L425.652,110.1l64.487-28.757L748.089-33.687c10.75-4.789,21.49-9.6,32.284-14.295,10.8-4.668,21.641-9.288,32.784-13.116a127.413,127.413,0,0,1,17.027-4.685,49.2,49.2,0,0,1,17.6-.507,31.575,31.575,0,0,1,8.392,2.779,35.652,35.652,0,0,1,7.353,4.915A66,66,0,0,1,874.964-45.14a172.3,172.3,0,0,1,8.927,15.266c2.74,5.222,5.322,10.523,7.839,15.854,5.023,10.668,9.8,21.449,14.582,32.224Z" transform="translate(-130.716 145.067)"/></g><g transform="translate(163.358 4.092)"><path class="b" d="M946.789,49.39,932.824,18.1C928.16,7.678,923.547-2.77,918.813-13.163s-9.566-20.746-14.991-30.791a148.682,148.682,0,0,0-8.909-14.6,58.576,58.576,0,0,0-11.472-12.572,33.281,33.281,0,0,0-7.294-4.352,31.917,31.917,0,0,0-8.171-2.274,50.826,50.826,0,0,0-16.934.883c-2.79.546-5.549,1.251-8.283,2.038s-5.446,1.657-8.138,2.581c-5.382,1.86-10.7,3.915-15.972,6.069C808.1-61.866,797.682-57.239,787.27-52.6L756.057-38.62,506.387,73.3l-62.418,27.98-31.208,13.989c-10.4,4.661-20.8,9.336-31.239,13.933-10.445,4.578-20.917,9.117-31.634,13.093a171.008,171.008,0,0,1-16.345,5.232,67.465,67.465,0,0,1-17.06,2.443,37.574,37.574,0,0,1-8.641-1.009,32.083,32.083,0,0,1-8.109-3.224,45.958,45.958,0,0,1-12.92-11.5,86,86,0,0,1-5.062-6.991c-1.584-2.4-3.079-4.849-4.506-7.336-2.867-4.967-5.5-10.054-8.034-15.182-5.062-10.261-9.761-20.681-14.438-31.1L240.8,42.34,212.831-20.216,156.893-145.328l1.963-.881L214.549-20.985,242.4,41.627l13.91,31.31c4.654,10.425,9.327,20.841,14.351,31.074,2.516,5.113,5.124,10.179,7.957,15.107,1.409,2.468,2.883,4.9,4.442,7.264a84.293,84.293,0,0,0,4.961,6.881,44.458,44.458,0,0,0,12.458,11.149A30.575,30.575,0,0,0,308.2,147.5a36.1,36.1,0,0,0,8.3.982,54.106,54.106,0,0,0,8.4-.641c2.787-.43,5.552-1.029,8.3-1.723a169.493,169.493,0,0,0,16.216-5.157c10.669-3.934,21.137-8.446,31.58-13,10.438-4.573,20.845-9.228,31.258-13.868l31.236-13.928L505.95,72.312,755.839-39.113l31.241-13.918C797.5-57.65,807.933-62.258,818.5-66.556c5.283-2.145,10.608-4.192,16-6.044,2.7-.92,5.414-1.8,8.162-2.57s5.512-1.485,8.315-2.028a51.124,51.124,0,0,1,17.042-.852,32.212,32.212,0,0,1,8.242,2.312,33.571,33.571,0,0,1,7.346,4.4A58.826,58.826,0,0,1,895.1-58.69,148.769,148.769,0,0,1,904-44.051c5.409,10.065,10.211,20.436,14.937,30.832s9.307,20.86,13.949,31.295Z" transform="translate(-156.893 146.209)"/></g><g transform="translate(177.47 3.475)"><g transform="translate(0 0)"><path class="b" d="M959.418,17.862l-13.535-30.34c-4.529-10.105-9.078-20.2-13.922-30.16-2.423-4.977-4.939-9.91-7.624-14.749a134.077,134.077,0,0,0-8.818-14.045,54.592,54.592,0,0,0-11.406-11.919,32.875,32.875,0,0,0-7.184-4.033,31.987,31.987,0,0,0-7.973-2.049,51.684,51.684,0,0,0-16.429.971c-2.707.528-5.382,1.214-8.036,1.969s-5.281,1.6-7.9,2.484c-10.444,3.6-20.633,7.9-30.773,12.292-10.135,4.407-20.218,8.94-30.307,13.457L765.252-44.694,523.161,63.836,462.638,90.968l-30.262,13.566c-10.087,4.52-20.172,9.05-30.294,13.5-10.131,4.432-20.291,8.822-30.683,12.675-5.2,1.9-10.457,3.7-15.841,5.1-2.689.707-5.407,1.324-8.163,1.768a58.21,58.21,0,0,1-8.348.8,38.575,38.575,0,0,1-8.4-.725,32.1,32.1,0,0,1-8-2.755,42.289,42.289,0,0,1-12.982-10.632,98.908,98.908,0,0,1-9.591-13.691c-2.862-4.772-5.452-9.688-7.959-14.637-4.991-9.913-9.578-20-14.132-30.1L264.431,35.5,237.31-25.158,183.069-146.473l1.963-.881,54,121.428,27,60.714,13.491,30.356c4.529,10.1,9.09,20.186,14.039,30.066,2.485,4.932,5.051,9.824,7.875,14.554a97.4,97.4,0,0,0,9.409,13.494,40.777,40.777,0,0,0,12.486,10.286,30.591,30.591,0,0,0,7.621,2.642,37.088,37.088,0,0,0,8.077.712A69.306,69.306,0,0,0,355.2,134.41c5.318-1.37,10.54-3.144,15.718-5.026,10.346-3.811,20.5-8.174,30.631-12.582,10.123-4.429,20.216-8.937,30.313-13.438l30.289-13.5L522.724,62.85,765.033-45.187l30.289-13.5c10.1-4.5,20.191-9.009,30.339-13.4,10.153-4.37,20.357-8.656,30.825-12.24,2.622-.877,5.254-1.732,7.919-2.472s5.346-1.433,8.064-1.959A51.967,51.967,0,0,1,888.99-89.7a32.238,32.238,0,0,1,8.033,2.081,33.115,33.115,0,0,1,7.228,4.077,54.8,54.8,0,0,1,11.431,11.989,134.387,134.387,0,0,1,8.8,14.083c2.678,4.848,5.184,9.789,7.6,14.772,4.826,9.969,9.354,20.077,13.863,30.192Z" transform="translate(-183.069 147.354)"/></g></g><g transform="translate(191.981 3.753)"><path class="b" d="M972.966-11.634c-4.369-9.8-8.729-19.609-13.224-29.354-4.515-9.732-9.123-19.436-14.4-28.776a123.437,123.437,0,0,0-8.7-13.509,51.716,51.716,0,0,0-11.264-11.346,32.386,32.386,0,0,0-7.038-3.776,32.172,32.172,0,0,0-7.755-1.893,52.209,52.209,0,0,0-15.931.934c-2.622.522-5.218,1.17-7.8,1.88-2.571.737-5.129,1.521-7.662,2.384-5.074,1.7-10.072,3.626-15.041,5.618-9.932,4-19.736,8.323-29.526,12.669l-58.66,26.276L541.358,54.656l-58.652,26.3L453.381,94.1c-9.775,4.381-19.549,8.769-29.358,13.086-9.817,4.3-19.664,8.548-29.718,12.323-5.026,1.886-10.12,3.614-15.306,5.069-2.6.7-5.218,1.353-7.872,1.86a66.227,66.227,0,0,1-8.052,1.041,42.429,42.429,0,0,1-8.156-.23,32.732,32.732,0,0,1-7.937-2.048,38.143,38.143,0,0,1-13.312-9.362,67.035,67.035,0,0,1-5.221-6.234c-1.63-2.162-3.137-4.407-4.579-6.688-2.888-4.56-5.5-9.276-7.98-14.049-4.959-9.55-9.458-19.309-13.9-29.084s-8.762-19.6-13.155-29.392L262.551-28.39,209.986-145.956l1.963-.881L264.27-29.158,290.431,29.68c4.373,9.8,8.677,19.632,13.089,29.409s8.888,19.523,13.8,29.032c2.459,4.751,5.04,9.438,7.884,13.948,1.42,2.256,2.9,4.471,4.5,6.6a65.528,65.528,0,0,0,5.087,6.1,36.628,36.628,0,0,0,12.755,9.025A35.125,35.125,0,0,0,362.987,126a64.847,64.847,0,0,0,7.868-1c2.607-.493,5.191-1.127,7.761-1.817,5.13-1.429,10.192-3.132,15.2-5,10.012-3.737,19.855-7.958,29.671-12.232,9.81-4.292,19.592-8.659,29.377-13.021l29.353-13.086,58.706-26.173L775.746-51.019l58.715-26.154c9.8-4.326,19.616-8.627,29.563-12.612,4.978-1.983,9.984-3.9,15.07-5.593,2.539-.859,5.1-1.639,7.681-2.373,2.586-.706,5.189-1.35,7.821-1.869a52.447,52.447,0,0,1,16.01-.9,32.4,32.4,0,0,1,7.8,1.922,32.6,32.6,0,0,1,7.076,3.816A51.9,51.9,0,0,1,936.77-83.375a123.638,123.638,0,0,1,8.687,13.545c5.263,9.358,9.851,19.072,14.346,28.815C964.278-31.261,968.617-21.445,972.966-11.634Z" transform="translate(-209.986 146.837)"/></g><g transform="translate(206.494 4.036)"><g transform="translate(0 0)"><path class="b" d="M984.207-46.181c-4.294-9.4-8.644-18.773-13.447-27.919-2.4-4.57-4.926-9.082-7.7-13.433a81.248,81.248,0,0,0-9.364-12.293,37.547,37.547,0,0,0-12.433-8.977,34.747,34.747,0,0,0-15.08-2.564,71.841,71.841,0,0,0-15.213,2.452c-4.984,1.3-9.883,2.913-14.725,4.674-9.683,3.535-19.174,7.578-28.627,11.694s-18.856,8.355-28.268,12.571L782.881-54.659,557.027,46.611,500.563,71.929,472.332,84.587c-9.412,4.216-18.821,8.441-28.272,12.581s-18.946,8.2-28.636,11.8c-4.848,1.791-9.753,3.454-14.748,4.846-2.505.67-5.025,1.3-7.58,1.786a68.629,68.629,0,0,1-7.745,1.042,37.617,37.617,0,0,1-15.542-1.891,36.367,36.367,0,0,1-13.127-8.569,58.4,58.4,0,0,1-5.2-5.862c-1.606-2.055-3.127-4.171-4.545-6.35-2.87-4.337-5.423-8.858-7.872-13.423-4.872-9.148-9.248-18.526-13.554-27.924s-8.477-18.854-12.692-28.287l-25.3-56.591L236.906-145.431l1.963-.881L289.231-33.018l25.181,56.647c4.194,9.442,8.352,18.9,12.623,28.3s8.626,18.76,13.449,27.862c2.423,4.541,4.947,9.031,7.768,13.314,1.394,2.153,2.886,4.236,4.455,6.252a56.909,56.909,0,0,0,5.056,5.724,34.848,34.848,0,0,0,12.558,8.249,36.122,36.122,0,0,0,14.928,1.837,67.164,67.164,0,0,0,7.572-1c2.51-.474,5-1.087,7.473-1.744,4.941-1.365,9.814-3,14.642-4.775,9.649-3.567,19.134-7.606,28.587-11.712s18.868-8.32,28.289-12.515l28.259-12.6,56.518-25.195L782.662-55.151,839.18-80.346c9.421-4.195,18.839-8.4,28.3-12.51s18.969-8.121,28.67-11.638c4.851-1.753,9.761-3.358,14.758-4.649a72.018,72.018,0,0,1,15.265-2.426,34.929,34.929,0,0,1,15.153,2.611,37.691,37.691,0,0,1,12.464,9.039,81.31,81.31,0,0,1,9.352,12.331c2.771,4.361,5.283,8.88,7.678,13.457C975.6-64.972,979.934-55.586,984.207-46.181Z" transform="translate(-236.906 146.312)"/></g></g><g transform="translate(220.677 3.582)"><g transform="translate(0 0)"><path class="b" d="M996.086-78.247c-2.219-4.465-4.507-8.9-6.951-13.243a133.08,133.08,0,0,0-7.969-12.643,58.807,58.807,0,0,0-10.015-11.029,32.813,32.813,0,0,0-13.163-6.722,41.8,41.8,0,0,0-14.808-.581,90.183,90.183,0,0,0-14.554,3.172,281.052,281.052,0,0,0-27.976,10.369c-9.178,3.85-18.275,7.9-27.367,11.951L846.029-84.76l-54.5,24.442L573.508,37.447,519,61.889c-18.178,8.128-36.308,16.35-54.55,24.353-9.132,3.975-18.3,7.9-27.658,11.363-4.681,1.727-9.415,3.332-14.235,4.683a82.455,82.455,0,0,1-14.77,2.846,39.341,39.341,0,0,1-15.059-1.354,32.075,32.075,0,0,1-6.958-3.128,38.976,38.976,0,0,1-6.09-4.56A66.027,66.027,0,0,1,369.9,84.6a148,148,0,0,1-7.826-12.833c-4.817-8.774-9.1-17.806-13.287-26.863s-8.235-18.179-12.295-27.29L312.067-37.018,263.215-146.273l1.963-.881L313.785-37.786l24.3,54.685c4.039,9.118,8.07,18.239,12.224,27.3s8.411,18.068,13.175,26.789A146.4,146.4,0,0,0,371.2,83.7a64.456,64.456,0,0,0,9.523,11.246,33.229,33.229,0,0,0,12.461,7.391,37.865,37.865,0,0,0,14.486,1.324,81.016,81.016,0,0,0,14.51-2.766c4.768-1.325,9.472-2.907,14.133-4.615,9.319-3.429,18.478-7.322,27.609-11.271,18.242-7.954,36.4-16.139,54.593-24.224L573.07,36.462,791.306-60.811,845.865-85.13l27.283-12.151c9.1-4.035,18.209-8.06,27.4-11.891a281.237,281.237,0,0,1,28.023-10.315,90.356,90.356,0,0,1,14.591-3.145,41.946,41.946,0,0,1,14.859.617,32.934,32.934,0,0,1,13.2,6.774,58.908,58.908,0,0,1,10,11.067,132.929,132.929,0,0,1,7.943,12.665C991.6-87.155,993.878-82.718,996.086-78.247Z" transform="translate(-263.215 147.154)"/></g></g><g transform="translate(235.176 3.835)"><path class="b" d="M1008.689-106.331a107.6,107.6,0,0,0-8.165-11.912,49.285,49.285,0,0,0-10.406-9.929,32.531,32.531,0,0,0-13.332-5.152,47.919,47.919,0,0,0-14.348.383c-9.5,1.562-18.625,4.791-27.608,8.188-8.977,3.458-17.814,7.27-26.628,11.129-17.608,7.766-35.143,15.7-52.711,23.562L802.808-66.434,592.073,28.076,539.389,51.7c-17.57,7.858-35.1,15.8-52.728,23.542-8.824,3.851-17.685,7.635-26.712,11.033-4.517,1.69-9.072,3.294-13.715,4.648a92.2,92.2,0,0,1-14.193,3.115,53.5,53.5,0,0,1-7.3.445,38.167,38.167,0,0,1-7.3-.808,32.792,32.792,0,0,1-13.267-6.206,55.271,55.271,0,0,1-10.132-10.531,118.707,118.707,0,0,1-7.958-12.174c-4.841-8.387-9.069-17.081-13.181-25.81s-8.039-17.541-11.97-26.345L337.329-40.2,290.108-145.8l1.963-.881L339.048-40.964,362.526,11.9c3.91,8.811,7.827,17.615,11.895,26.344s8.276,17.391,13.055,25.714A117.131,117.131,0,0,0,395.3,75.985a53.734,53.734,0,0,0,9.813,10.257A31.253,31.253,0,0,0,417.755,92.2a36.667,36.667,0,0,0,7.011.791,52.005,52.005,0,0,0,7.091-.417,90.812,90.812,0,0,0,13.973-3.035c4.6-1.328,9.128-2.912,13.626-4.582,8.992-3.362,17.847-7.118,26.67-10.944,17.633-7.69,35.185-15.6,52.771-23.414l52.738-23.5L802.589-66.926l52.738-23.5c17.587-7.819,35.139-15.714,52.768-23.44,8.824-3.84,17.673-7.632,26.663-11.071,9-3.379,18.137-6.59,27.658-8.132a48.046,48.046,0,0,1,14.385-.35,32.612,32.612,0,0,1,13.354,5.2,49.352,49.352,0,0,1,10.4,9.964A107.725,107.725,0,0,1,1008.689-106.331Z" transform="translate(-290.108 146.685)"/></g><g transform="translate(249.626 3.98)"><g transform="translate(0 0)"><path class="b" d="M1020.98-130.863a45.542,45.542,0,0,0-10.486-9.176,34.575,34.575,0,0,0-3.093-1.622c-.534-.232-1.05-.506-1.6-.7l-1.642-.595a32.4,32.4,0,0,0-6.814-1.459,48.972,48.972,0,0,0-13.9.656,107.353,107.353,0,0,0-13.543,3.391c-4.447,1.388-8.836,2.961-13.182,4.639s-8.668,3.424-12.963,5.235c-8.593,3.612-17.115,7.391-25.629,11.189L816.046-73.534,611.892,18.034,560.854,40.926c-17.02,7.615-34,15.305-51.077,22.819-8.545,3.738-17.12,7.42-25.838,10.781-4.36,1.674-8.759,3.261-13.227,4.662a107.632,107.632,0,0,1-13.638,3.437,59.578,59.578,0,0,1-7.019.846,41.2,41.2,0,0,1-7.1-.129,32.42,32.42,0,0,1-13.487-4.424,44.45,44.45,0,0,1-10.711-9.295,91.574,91.574,0,0,1-8.264-11.438C408,54.2,405.717,50.1,403.536,45.961s-4.26-8.337-6.284-12.553c-4.048-8.432-7.9-16.947-11.728-25.47L362.659-43.223,316.912-145.535l1.963-.881,45.5,102.425L387.118,7.223c3.8,8.527,7.632,17.04,11.647,25.456,2.008,4.208,4.068,8.389,6.227,12.513s4.416,8.194,6.866,12.135a89.934,89.934,0,0,0,8.091,11.259,42.9,42.9,0,0,0,10.307,9,30.881,30.881,0,0,0,12.856,4.248,39.7,39.7,0,0,0,6.856.141,58.248,58.248,0,0,0,6.853-.81,106.214,106.214,0,0,0,13.461-3.36c4.43-1.378,8.809-2.944,13.154-4.6,8.688-3.325,17.259-6.981,25.8-10.694,17.076-7.466,34.084-15.118,51.121-22.691l51.093-22.769L815.828-74.027l102.191-45.527c8.523-3.778,17.056-7.537,25.66-11.129q6.45-2.7,12.981-5.206c4.353-1.668,8.748-3.232,13.2-4.61a107.465,107.465,0,0,1,13.566-3.361,49.037,49.037,0,0,1,13.926-.624,32.469,32.469,0,0,1,6.822,1.478l1.643.6c.549.2,1.065.473,1.6.707a34.722,34.722,0,0,1,3.092,1.631A45.576,45.576,0,0,1,1020.98-130.863Z" transform="translate(-316.912 146.416)"/></g></g><g transform="translate(264.197 3.048)"><g transform="translate(0 0)"><path class="b" d="M979.853-148.145c-7.924,3.014-15.732,6.322-23.507,9.7s-15.512,6.846-23.25,10.308l-46.411,20.821-92.82,41.646L608.223,17.619l-46.41,20.823-23.222,10.38c-7.753,3.437-15.522,6.843-23.368,10.082s-15.769,6.321-23.913,8.819a102.057,102.057,0,0,1-12.423,3.05,62.929,62.929,0,0,1-6.377.8,48.288,48.288,0,0,1-6.455.015,33.088,33.088,0,0,1-12.479-3.343,38.844,38.844,0,0,1-10.356-7.715,73.624,73.624,0,0,1-8.075-10c-2.418-3.53-4.609-7.2-6.7-10.91-4.168-7.439-7.891-15.094-11.525-22.781-3.616-7.7-7.111-15.442-10.58-23.2l-20.8-46.524L343.94-145.915l1.963-.881,41.363,93.149L407.937-7.071c3.448,7.759,6.918,15.507,10.506,23.194,3.6,7.677,7.295,15.317,11.411,22.707,2.063,3.691,4.223,7.325,6.6,10.808a72.039,72.039,0,0,0,7.872,9.807,37.315,37.315,0,0,0,9.929,7.445,31.579,31.579,0,0,0,11.914,3.222,46.883,46.883,0,0,0,6.246,0,61.775,61.775,0,0,0,6.232-.767,100.782,100.782,0,0,0,12.26-2.977c8.075-2.453,15.978-5.505,23.811-8.711s15.6-6.592,23.362-10.006L561.32,37.333l46.465-20.7,185.86-82.8,92.93-41.4,46.466-20.7c7.747-3.442,15.494-6.887,23.278-10.247S971.921-145.152,979.853-148.145Z" transform="translate(-343.94 148.145)"/></g></g><g transform="translate(278.499 3.613)"><path class="b" d="M973.526-147.1,951.5-137.283l-22,9.871-44,19.746-88,39.493L621.482,10.811l-44,19.746q-11,4.929-22.031,9.816c-7.36,3.239-14.742,6.435-22.207,9.447a231.75,231.75,0,0,1-22.786,8.072A90.894,90.894,0,0,1,498.6,60.516a48.526,48.526,0,0,1-12.2.374,32.75,32.75,0,0,1-11.747-3.508,37.8,37.8,0,0,1-5.177-3.329,46.445,46.445,0,0,1-4.576-4.083,71.2,71.2,0,0,1-7.7-9.454c-2.314-3.332-4.427-6.789-6.429-10.3-3.991-7.032-7.585-14.263-11.047-21.543S432.947-5.949,429.642-13.3L409.921-57.407l-39.452-88.21,1.963-.88L411.64-58.174l19.6,44.161c3.283,7.35,6.582,14.691,10.018,21.962s6.993,14.482,10.931,21.466c1.975,3.487,4.056,6.912,6.325,10.2a69.732,69.732,0,0,0,7.5,9.269,44.884,44.884,0,0,0,4.408,3.957,36.262,36.262,0,0,0,4.946,3.2,31.237,31.237,0,0,0,11.206,3.378,47.068,47.068,0,0,0,11.831-.334,89.648,89.648,0,0,0,11.674-2.552,230.48,230.48,0,0,0,22.668-7.962c7.451-2.982,14.833-6.152,22.2-9.369s14.706-6.485,22.051-9.751L621.045,9.827,797.272-68.666l88.113-39.246,44.057-19.623,22.029-9.81Z" transform="translate(-370.469 147.097)"/></g><g transform="translate(292.948 2.708)"><g transform="translate(0 0)"><path class="b" d="M972.464-148.775,637.457,1.591,595.58,20.384c-6.983,3.125-13.966,6.253-20.977,9.322s-14.047,6.09-21.163,8.931a220.987,220.987,0,0,1-21.724,7.584,89.589,89.589,0,0,1-11.288,2.465,49,49,0,0,1-11.606.436,32.7,32.7,0,0,1-11.27-3.031,37.651,37.651,0,0,1-9.564-6.687,65.611,65.611,0,0,1-7.6-8.783c-2.285-3.118-4.362-6.37-6.324-9.682-3.91-6.634-7.4-13.483-10.751-20.39s-6.544-13.88-9.708-20.865L434.82-62.291l-37.548-83.95,1.963-.881,37.3,84.063L455.2-21.037c3.14,6.986,6.309,13.959,9.627,20.852s6.774,13.719,10.627,20.3c1.932,3.285,3.975,6.5,6.211,9.57a64.09,64.09,0,0,0,7.386,8.591,36.121,36.121,0,0,0,9.154,6.446,31.2,31.2,0,0,0,10.757,2.924,47.573,47.573,0,0,0,11.263-.394,88.17,88.17,0,0,0,11.117-2.4,219.6,219.6,0,0,0,21.606-7.474c7.1-2.811,14.135-5.8,21.148-8.852s14-6.152,20.995-9.256L637.02.606Z" transform="translate(-397.272 148.775)"/></g></g><g transform="translate(307.057 3.189)"><g transform="translate(0)"><path class="b" d="M968.163-147.884,651.273-5.612,611.657,12.163c-6.607,2.953-13.22,5.9-19.865,8.776s-13.318,5.7-20.077,8.321a190.088,190.088,0,0,1-20.654,6.895,83.681,83.681,0,0,1-10.734,2.1,47.235,47.235,0,0,1-11,.121,32.58,32.58,0,0,1-10.605-3.1,37.29,37.29,0,0,1-9.035-6.348,61.8,61.8,0,0,1-7.263-8.248c-2.19-2.93-4.188-5.986-6.077-9.1-3.775-6.234-7.11-12.7-10.324-19.212s-6.254-13.1-9.266-19.7c-6-13.209-11.854-26.473-17.793-39.7l-35.522-79.412,1.963-.88L460.683-67.8c5.9,13.245,11.713,26.531,17.665,39.742,2.988,6.6,6.009,13.183,9.184,19.685s6.481,12.939,10.2,19.118c1.859,3.087,3.822,6.109,5.963,8.99a60.238,60.238,0,0,0,7.054,8.063,35.792,35.792,0,0,0,8.647,6.12,31.071,31.071,0,0,0,10.115,2.989,45.78,45.78,0,0,0,10.651-.088,82.234,82.234,0,0,0,10.553-2.037A188.726,188.726,0,0,0,571.232,28c6.74-2.593,13.411-5.385,20.055-8.24s13.263-5.777,19.879-8.708L650.835-6.6Z" transform="translate(-423.443 147.884)"/></g></g><g transform="translate(321.371 3.031)"><g transform="translate(0 0)"><path class="b" d="M965.474-148.177,666.212-13.784,628.794,3c-6.244,2.781-12.5,5.55-18.782,8.242s-12.6,5.326-19.011,7.747A173.9,173.9,0,0,1,571.424,25.3a76.653,76.653,0,0,1-10.169,1.85,46.732,46.732,0,0,1-10.391.024,32.985,32.985,0,0,1-10.037-2.881,36.152,36.152,0,0,1-8.655-5.832,74.773,74.773,0,0,1-12.943-16.13c-3.66-5.835-6.885-11.907-9.973-18.033s-6-12.336-8.866-18.558c-5.727-12.451-11.237-24.988-16.847-37.478l-33.549-75,1.963-.88,33.3,75.11c5.57,12.51,11.039,25.065,16.716,37.513,2.845,6.221,5.733,12.421,8.78,18.535S517-4.3,520.6,1.474c3.6,5.756,7.6,11.321,12.6,15.832a34.632,34.632,0,0,0,8.274,5.619,31.492,31.492,0,0,0,9.572,2.78c6.666.8,13.468-.187,20.044-1.778a172.757,172.757,0,0,0,19.438-6.2c6.386-2.389,12.7-5,18.983-7.663S622.053,4.647,628.3,1.887l37.47-16.656Z" transform="translate(-449.994 148.177)"/></g></g><g transform="translate(335.804 2.71)"><g transform="translate(0)"><path class="b" d="M963.255-148.773,681.571-22.237,646.342-6.454c-11.77,5.2-23.56,10.391-35.646,14.894a159.43,159.43,0,0,1-18.49,5.769c-6.289,1.467-12.832,2.4-19.374,1.656a33.245,33.245,0,0,1-9.493-2.563,35.359,35.359,0,0,1-8.315-5.248A66.836,66.836,0,0,1,542.421-6.8a188.44,188.44,0,0,1-9.655-16.835c-2.968-5.74-5.753-11.564-8.489-17.407-5.456-11.693-10.666-23.486-15.929-35.252l-31.582-70.594,1.963-.88,31.338,70.707c5.223,11.784,10.391,23.591,15.794,35.279,2.709,5.84,5.466,11.656,8.4,17.374a186.975,186.975,0,0,0,9.51,16.72A65.343,65.343,0,0,0,556.014,6.864a33.83,33.83,0,0,0,7.937,5.051,31.782,31.782,0,0,0,9.055,2.478c6.276.735,12.674-.135,18.88-1.563a158.146,158.146,0,0,0,18.346-5.656c12.044-4.439,23.842-9.58,35.622-14.739l35.279-15.657Z" transform="translate(-476.766 148.773)"/></g></g><g transform="translate(350.52 2.672)"><g transform="translate(0 0)"><path class="b" d="M960.644-148.842,697.171-30.447c-10.979,4.93-21.95,9.879-32.964,14.741-11.023,4.84-22.074,9.646-33.419,13.764a149.361,149.361,0,0,1-17.346,5.251,56.624,56.624,0,0,1-18.137,1.514,32.283,32.283,0,0,1-8.935-2.187,34.454,34.454,0,0,1-7.98-4.589,59.412,59.412,0,0,1-12.285-13.485,156.748,156.748,0,0,1-9.359-15.569c-2.86-5.329-5.526-10.751-8.125-16.2-5.186-10.9-10.1-21.921-15.02-32.929l-29.539-66.035,1.963-.88L535.32-80.9C540.2-69.88,545.068-58.852,550.2-47.96c2.571,5.442,5.207,10.853,8.028,16.157a155.287,155.287,0,0,0,9.2,15.44,57.891,57.891,0,0,0,11.9,13.178,32.925,32.925,0,0,0,7.606,4.414,30.812,30.812,0,0,0,8.528,2.119,55.246,55.246,0,0,0,17.671-1.421,148.093,148.093,0,0,0,17.2-5.139c11.3-4.053,22.355-8.812,33.386-13.606,11.024-4.817,22.014-9.726,33.012-14.614Z" transform="translate(-504.062 148.842)"/></g></g><g transform="translate(364.684 2.977)"><path class="b" d="M956.8-148.277,711.3-37.919c-10.232,4.592-20.457,9.2-30.74,13.691-10.29,4.469-20.626,8.87-31.256,12.559-2.66.914-5.336,1.787-8.047,2.558s-5.441,1.485-8.213,2.038A52.51,52.51,0,0,1,616.1-6.053a32.867,32.867,0,0,1-8.3-2.161,33.912,33.912,0,0,1-7.457-4.245A57.157,57.157,0,0,1,588.655-24.82c-1.652-2.3-3.206-4.664-4.7-7.064-1.465-2.414-2.9-4.846-4.248-7.32-2.731-4.933-5.261-9.965-7.724-15.024-4.91-10.127-9.526-20.378-14.126-30.631l-27.527-61.534,1.963-.88L559.58-85.628c4.556,10.266,9.127,20.525,13.98,30.636,2.434,5.051,4.933,10.07,7.623,14.976,1.331,2.462,2.74,4.875,4.179,7.268,1.463,2.377,2.985,4.714,4.6,6.981A55.62,55.62,0,0,0,601.268-13.7a32.413,32.413,0,0,0,7.1,4.085,31.4,31.4,0,0,0,7.918,2.093,51.1,51.1,0,0,0,16.479-.938c2.727-.533,5.432-1.211,8.112-1.979s5.344-1.608,7.99-2.505c10.577-3.622,20.915-7.973,31.21-12.4,10.29-4.445,20.533-9.012,30.783-13.562Z" transform="translate(-530.335 148.277)"/></g><g transform="translate(379.055 3.49)"><g transform="translate(0 0)"><path class="b" d="M952.663-147.326,725.609-45.216c-9.466,4.243-18.932,8.491-28.468,12.591C687.6-28.543,678-24.563,668.105-21.306c-1.233.416-2.484.782-3.725,1.174-1.255.352-2.5.742-3.763,1.06-2.515.687-5.068,1.254-7.641,1.724a49.606,49.606,0,0,1-15.7.591A32.642,32.642,0,0,1,629.6-18.8a33.569,33.569,0,0,1-6.946-3.849,44.2,44.2,0,0,1-5.975-5.191,69.5,69.5,0,0,1-5.107-6,122.426,122.426,0,0,1-8.542-13.146c-2.6-4.525-5.005-9.149-7.329-13.809-4.64-9.323-8.958-18.787-13.237-28.261l-25.476-56.911,1.963-.879,25.229,57.017c4.235,9.484,8.506,18.951,13.085,28.255,2.293,4.649,4.666,9.257,7.222,13.753a120.875,120.875,0,0,0,8.369,13,67.986,67.986,0,0,0,4.957,5.877,42.629,42.629,0,0,0,5.74,5.033,32.032,32.032,0,0,0,6.615,3.7,31.112,31.112,0,0,0,7.312,1.983,48.2,48.2,0,0,0,15.247-.518c2.528-.451,5.045-1,7.535-1.666,1.251-.308,2.484-.69,3.727-1.033,1.232-.384,2.472-.74,3.7-1.148,9.831-3.189,19.432-7.118,28.975-11.154C706.208-37.794,715.689-42,725.173-46.2Z" transform="translate(-556.992 147.326)"/></g></g><g transform="translate(393.482 3.483)"><g transform="translate(0 0)"><path class="b" d="M949.741-147.339,740.609-53.253c-8.724,3.9-17.455,7.79-26.267,11.506-8.815,3.7-17.7,7.285-26.863,10.143a102.837,102.837,0,0,1-14,3.417,61.112,61.112,0,0,1-7.21.735,42.077,42.077,0,0,1-7.273-.373,32.979,32.979,0,0,1-7.085-1.818,32.522,32.522,0,0,1-6.49-3.388A48.629,48.629,0,0,1,634.851-43c-1.538-1.869-2.935-3.838-4.314-5.816-1.34-2-2.653-4.023-3.881-6.091-2.481-4.122-4.776-8.344-6.977-12.608-4.391-8.535-8.435-17.225-12.42-25.935s-7.868-17.462-11.776-26.2l-11.73-26.21,1.964-.879,11.607,26.267c3.868,8.756,7.719,17.518,11.647,26.24s7.934,17.406,12.261,25.915c2.169,4.25,4.428,8.452,6.863,12.541,1.206,2.052,2.492,4.051,3.8,6.03,1.347,1.952,2.711,3.895,4.206,5.726a47.082,47.082,0,0,0,10.174,9.694,30.968,30.968,0,0,0,6.174,3.262,31.45,31.45,0,0,0,6.756,1.767,40.645,40.645,0,0,0,7.012.391,59.676,59.676,0,0,0,7.036-.685,101.41,101.41,0,0,0,13.829-3.308c9.1-2.79,17.976-6.32,26.79-9.973,8.813-3.668,17.558-7.515,26.3-11.372Z" transform="translate(-583.753 147.339)"/></g></g><g transform="translate(407.788 3.535)"><g transform="translate(0 0)"><path class="b" d="M946.582-147.241,755.3-61.163c-7.989,3.549-15.994,7.068-24.087,10.4a250.22,250.22,0,0,1-24.705,8.94,90.54,90.54,0,0,1-12.881,2.849,52.156,52.156,0,0,1-6.613.527,37.847,37.847,0,0,1-6.65-.434,32.365,32.365,0,0,1-6.483-1.663,33.643,33.643,0,0,1-6-2.985,37.692,37.692,0,0,1-5.315-4.05c-.841-.73-1.617-1.525-2.407-2.306-.385-.4-.756-.811-1.135-1.216s-.749-.817-1.105-1.242c-1.468-1.662-2.8-3.43-4.113-5.2-1.279-1.8-2.526-3.619-3.7-5.483-2.36-3.719-4.535-7.543-6.614-11.412-4.148-7.744-7.931-15.659-11.625-23.606s-7.274-15.942-10.853-23.934L610.289-145.96l1.965-.878,10.6,24.031c3.538,8.007,7.078,16.012,10.72,23.964s7.377,15.859,11.458,23.571c2.044,3.853,4.181,7.654,6.492,11.337,1.148,1.848,2.366,3.644,3.614,5.419,1.283,1.745,2.576,3.486,4,5.111.345.416.7.823,1.07,1.215s.724.8,1.1,1.188c.762.76,1.51,1.535,2.317,2.243a36.163,36.163,0,0,0,5.083,3.917,32.121,32.121,0,0,0,5.7,2.876,30.875,30.875,0,0,0,6.181,1.618,36.359,36.359,0,0,0,6.405.45,50.662,50.662,0,0,0,6.442-.48,89.244,89.244,0,0,0,12.7-2.743,248.988,248.988,0,0,0,24.618-8.768c8.09-3.279,16.106-6.754,24.109-10.26Z" transform="translate(-610.289 147.241)"/></g></g><g transform="translate(422.077 3.321)"><g transform="translate(0 0)"><path class="b" d="M944.006-147.639l-86.859,39.134L813.716-88.938c-14.482,6.512-28.936,13.079-43.469,19.489-7.269,3.2-14.567,6.339-21.95,9.289a210.108,210.108,0,0,1-22.575,7.772,85.048,85.048,0,0,1-11.761,2.349,44.808,44.808,0,0,1-12.061-.1A32,32,0,0,1,690.485-54.2a36.226,36.226,0,0,1-4.965-3.5c-.4-.314-.779-.646-1.149-.989s-.754-.674-1.121-1.02c-.71-.716-1.453-1.4-2.123-2.155a76.47,76.47,0,0,1-7.44-9.466c-2.245-3.318-4.308-6.746-6.272-10.223-3.918-6.96-7.449-14.111-10.875-21.3-6.823-14.393-13.231-28.957-19.745-43.466l1.964-.878c6.433,14.549,12.757,29.145,19.481,43.536,3.376,7.186,6.853,14.326,10.7,21.248,1.927,3.457,3.95,6.858,6.142,10.138a74.891,74.891,0,0,0,7.226,9.3c.648.736,1.362,1.4,2.046,2.1.353.337.719.66,1.077.991s.721.656,1.1.96a34.7,34.7,0,0,0,4.738,3.384,29.614,29.614,0,0,0,5.243,2.48,29.828,29.828,0,0,0,5.621,1.449,43.417,43.417,0,0,0,11.669.16,83.752,83.752,0,0,0,11.578-2.246,208.737,208.737,0,0,0,22.474-7.6c7.377-2.9,14.683-6,21.964-9.15,14.558-6.324,29.053-12.81,43.571-19.239L856.928-109Z" transform="translate(-636.794 147.639)"/></g></g><g transform="translate(434.766 0)"><path class="b" d="M939-150.217l-78.716,35.493L820.926-96.978c-13.126,5.9-26.225,11.862-39.455,17.55-6.618,2.837-13.274,5.594-20.033,8.108a148.885,148.885,0,0,1-20.722,6.3,62.485,62.485,0,0,1-10.8,1.407l-1.369.035c-.456.008-.914-.015-1.37-.021-.915,0-1.828-.091-2.741-.154a34.551,34.551,0,0,1-5.422-.943l-.67-.167-.659-.206c-.438-.14-.88-.27-1.315-.42-.858-.335-1.73-.637-2.559-1.041a32.243,32.243,0,0,1-4.816-2.688,44.5,44.5,0,0,1-8.223-7.254,103.645,103.645,0,0,1-12.423-17.858c-3.6-6.283-6.851-12.742-10-19.24-6.269-13.01-12.114-26.2-18.017-39.349l1.965-.877c5.82,13.188,11.581,26.4,17.748,39.408,3.094,6.495,6.29,12.942,9.819,19.188a102.012,102.012,0,0,0,12.1,17.643,42.936,42.936,0,0,0,7.889,7.052,30.725,30.725,0,0,0,4.581,2.595c.787.391,1.617.682,2.431,1.007.414.146.835.271,1.252.408l.627.2.638.163a33.142,33.142,0,0,0,5.189.935c.88.066,1.758.16,2.642.165.442.009.884.035,1.326.029l1.328-.025a61.212,61.212,0,0,0,10.576-1.313,147.813,147.813,0,0,0,20.577-6.116c6.744-2.46,13.4-5.17,20.029-7.962,13.248-5.6,26.386-11.475,39.547-17.3l39.468-17.5Z" transform="translate(-660.331 153.799)"/></g></g></svg>