<svg xmlns="http://www.w3.org/2000/svg" width="33.5" height="47.245" viewBox="0 0 33.5 47.245"><defs><style>.a{fill:#9a999e;}.b{fill:#9e684a;}</style></defs><path class="a" d="M-187.281,239.895l9.3-19.506h3.253l-10.294,21.147Z" transform="translate(198.98 -220.389)"/><path class="b" d="M-169.885,243.073a1.508,1.508,0,0,0,1.5-1.5,1.508,1.508,0,0,0-1.5-1.5h-30.492a1.508,1.508,0,0,0-1.5,1.5,1.508,1.508,0,0,0,1.5,1.5h1.077a8.136,8.136,0,0,1,1.451,4.557,15.528,15.528,0,0,0-2.4,8.308,15.6,15.6,0,0,0,7.7,13.452h-.458a1.08,1.08,0,0,0-1.078,1.077,1.081,1.081,0,0,0,1.078,1.078h15.826a1.08,1.08,0,0,0,1.077-1.078,1.077,1.077,0,0,0-.733-1.015,15.6,15.6,0,0,0,7.8-13.513,15.533,15.533,0,0,0-2.73-8.817,8.088,8.088,0,0,1,1.428-4.048Z" transform="translate(201.881 -224.299)"/></svg>